<svg width="35" height="24" viewBox="0 0 35 24" fill="none" xmlns="http://www.w3.org/2000/svg">
<path d="M33.0088 9.63832V2.74876C33.0088 2.11459 32.5056 1.6005 31.8849 1.6005H25.7035C25.6956 1.6005 25.6895 1.60452 25.6822 1.60509C25.6182 1.60593 25.5549 1.61817 25.495 1.64126L25.4849 1.64528L23.0393 2.64541C22.6111 2.81803 22.3303 3.24124 22.3318 3.71157V3.89702H19.5221C19.2118 3.89702 18.9602 4.15407 18.9602 4.47115C18.9602 4.78823 19.2118 5.04528 19.5221 5.04528H22.3318V5.23072C22.3303 5.70086 22.6109 6.12395 23.0388 6.29688L25.1416 7.15636V9.63832H19.5221C19.5221 9.32124 19.2705 9.06419 18.9602 9.06419H17.8363V5.61941C17.8363 5.30233 17.5847 5.04528 17.2743 5.04528H13.9027C13.5923 5.04528 13.3407 5.30233 13.3407 5.61941V9.06419H12.2168C11.9065 9.06419 11.6549 9.32124 11.6549 9.63832H7.72129V7.91593H8.84518C9.15554 7.91593 9.40713 7.65888 9.40713 7.3418H10.531C11.1517 7.3418 11.6549 6.82771 11.6549 6.19354V2.74876C11.6549 2.11459 11.1517 1.6005 10.531 1.6005H9.40713C9.40713 1.28341 9.15554 1.02637 8.84518 1.02637H1.5399C0.919198 1.02637 0.416016 1.54046 0.416016 2.17463V13.6572C0.416016 13.671 0.422759 13.6831 0.423883 13.6968C0.425007 13.7106 0.419387 13.7204 0.421073 13.733L1.48034 21.8461C1.55443 22.4167 2.03067 22.8431 2.59411 22.8433H6.5974C7.21811 22.8433 7.72129 22.3292 7.72129 21.6951H25.1416C25.1416 22.3292 25.6448 22.8433 26.2655 22.8433H31.9546C32.5178 22.8432 32.994 22.4171 33.0684 21.8466L34.1276 13.733C34.1276 13.7204 34.1243 13.7089 34.1248 13.6968C34.1254 13.6848 34.1327 13.671 34.1327 13.6572V10.7866C34.1327 10.1524 33.6295 9.63832 33.0088 9.63832ZM23.4557 5.23015V3.71215L25.1416 3.02319V5.91911L23.4557 5.23015ZM26.2655 6.76767V2.74876H31.8849V9.63832H26.2655V6.76767ZM25.7035 10.7866H33.0088V13.0831H19.5221V10.7866H25.7035ZM25.1416 15.9538H7.72129V14.2314H11.6549C11.6549 14.5484 11.9065 14.8055 12.2168 14.8055H18.9602C19.2705 14.8055 19.5221 14.5484 19.5221 14.2314H25.1416V15.9538ZM14.4646 6.19354H16.7124V9.06419H14.4646V6.19354ZM13.9027 10.2125H18.3982V13.6572H12.7788V10.2125H13.9027ZM11.6549 10.7866V13.0831H7.72129V10.7866H11.6549ZM10.531 2.74876V6.19354H9.40713V2.74876H10.531ZM1.5399 2.17463H8.28324V6.76767H3.22574C2.91538 6.76767 2.66379 7.02472 2.66379 7.3418C2.66379 7.65888 2.91538 7.91593 3.22574 7.91593H6.5974V13.0831H1.5399V2.17463ZM6.5974 21.6951H2.59411L1.62026 14.2314H6.5974V21.6951ZM7.72129 20.5468V17.102H25.1416V20.5468H7.72129ZM31.9551 21.6951H26.2655V14.2314H32.9284L31.9551 21.6951Z" fill="#3C3C3B" stroke="#3C3C3B" stroke-width="0.5"/>
<path d="M23.4557 18.2502H12.7787C12.4684 18.2502 12.2168 18.5074 12.2168 18.8247C12.2168 19.142 12.4684 19.3992 12.7787 19.3992H23.4557C23.766 19.3992 24.0176 19.142 24.0176 18.8247C24.0176 18.5074 23.766 18.2502 23.4557 18.2502Z" fill="#3C3C3B" stroke="#3C3C3B" stroke-width="0.5"/>
<path d="M10.531 18.2502H9.40716C9.09681 18.2502 8.84521 18.5074 8.84521 18.8247C8.84521 19.142 9.09681 19.3992 9.40716 19.3992H10.531C10.8414 19.3992 11.093 19.142 11.093 18.8247C11.093 18.5074 10.8414 18.2502 10.531 18.2502Z" fill="#3C3C3B" stroke="#3C3C3B" stroke-width="0.5"/>
<path d="M14.4645 12.5098H16.7123C17.0227 12.5098 17.2743 12.2526 17.2743 11.9353C17.2743 11.618 17.0227 11.3608 16.7123 11.3608H14.4645C14.1542 11.3608 13.9026 11.618 13.9026 11.9353C13.9026 12.2526 14.1542 12.5098 14.4645 12.5098Z" fill="#3C3C3B" stroke="#3C3C3B" stroke-width="0.5"/>
</svg>
