<svg width="29" height="28" viewBox="0 0 29 28" fill="none" xmlns="http://www.w3.org/2000/svg">
<path d="M14.274 27.7671C6.6064 27.7671 0.390625 21.5512 0.390625 13.8835C0.390625 6.21587 6.6064 0 14.274 0C21.9415 0 28.1573 6.21587 28.1573 13.8835C28.1573 21.5512 21.9415 27.7671 14.274 27.7671ZM14.274 26.1337C21.0394 26.1337 26.524 20.6491 26.524 13.8835C26.524 7.11795 21.0394 1.63336 14.274 1.63336C7.50847 1.63336 2.02396 7.11795 2.02396 13.8835C2.02396 20.6491 7.50847 26.1337 14.274 26.1337ZM14.274 18.7836C11.5678 18.7836 9.37396 16.5898 9.37396 13.8835C9.37396 11.1773 11.5678 8.98347 14.274 8.98347C16.9802 8.98347 19.174 11.1773 19.174 13.8835C19.174 16.5898 16.9802 18.7836 14.274 18.7836ZM14.274 17.1503C16.0781 17.1503 17.5406 15.6877 17.5406 13.8835C17.5406 12.0794 16.0781 10.6168 14.274 10.6168C12.4698 10.6168 11.0073 12.0794 11.0073 13.8835C11.0073 15.6877 12.4698 17.1503 14.274 17.1503ZM14.274 7.75845C12.9209 7.75845 11.824 6.66153 11.824 5.30841C11.824 3.9553 12.9209 2.85838 14.274 2.85838C15.6271 2.85838 16.724 3.9553 16.724 5.30841C16.724 6.66153 15.6271 7.75845 14.274 7.75845ZM14.274 6.12509C14.725 6.12509 15.0906 5.75945 15.0906 5.30841C15.0906 4.85738 14.725 4.49173 14.274 4.49173C13.8229 4.49173 13.4573 4.85738 13.4573 5.30841C13.4573 5.75945 13.8229 6.12509 14.274 6.12509ZM18.605 6.08758C19.5618 5.13078 21.113 5.13078 22.0698 6.08758C23.0266 7.04438 23.0266 8.59564 22.0698 9.55244C21.113 10.5092 19.5618 10.5092 18.605 9.55244C17.6482 8.59564 17.6482 7.04438 18.605 6.08758ZM20.9149 8.39748C21.2338 8.07855 21.2338 7.56148 20.9149 7.24254C20.5959 6.92361 20.0789 6.92361 19.7599 7.24254C19.441 7.56148 19.441 8.07855 19.7599 8.39748C20.0789 8.71641 20.5959 8.71641 20.9149 8.39748ZM20.399 13.8835C20.399 12.5304 21.4959 11.4335 22.849 11.4335C24.2021 11.4335 25.299 12.5304 25.299 13.8835C25.299 15.2367 24.2021 16.3336 22.849 16.3336C21.4959 16.3336 20.399 15.2367 20.399 13.8835ZM22.0323 13.8835C22.0323 14.3346 22.3979 14.7002 22.849 14.7002C23.3 14.7002 23.6656 14.3346 23.6656 13.8835C23.6656 13.4325 23.3 13.0669 22.849 13.0669C22.3979 13.0669 22.0323 13.4325 22.0323 13.8835ZM18.605 18.2147C19.5618 17.2579 21.113 17.2579 22.0698 18.2147C23.0266 19.1714 23.0266 20.7227 22.0698 21.6795C21.113 22.6363 19.5618 22.6363 18.605 21.6795C17.6482 20.7227 17.6482 19.1714 18.605 18.2147ZM19.7599 19.3696C19.441 19.6885 19.441 20.2056 19.7599 20.5245C20.0789 20.8435 20.5959 20.8435 20.9149 20.5245C21.2338 20.2056 21.2338 19.6885 20.9149 19.3696C20.5959 19.0507 20.0789 19.0507 19.7599 19.3696ZM14.274 20.0086C15.6271 20.0086 16.724 21.1056 16.724 22.4587C16.724 23.8118 15.6271 24.9087 14.274 24.9087C12.9209 24.9087 11.824 23.8118 11.824 22.4587C11.824 21.1056 12.9209 20.0086 14.274 20.0086ZM14.274 21.642C13.8229 21.642 13.4573 22.0076 13.4573 22.4587C13.4573 22.9097 13.8229 23.2754 14.274 23.2754C14.725 23.2754 15.0906 22.9097 15.0906 22.4587C15.0906 22.0076 14.725 21.642 14.274 21.642ZM9.94293 21.6795C8.98615 22.6363 7.43489 22.6363 6.47811 21.6795C5.52132 20.7227 5.52132 19.1714 6.47811 18.2147C7.43489 17.2579 8.98615 17.2579 9.94293 18.2147C10.8997 19.1714 10.8997 20.7227 9.94293 21.6795ZM7.63305 19.3696C7.31412 19.6885 7.31412 20.2056 7.63305 20.5245C7.95197 20.8435 8.46906 20.8435 8.78799 20.5245C9.10692 20.2056 9.10692 19.6885 8.78799 19.3696C8.46906 19.0507 7.95197 19.0507 7.63305 19.3696ZM8.14896 13.8835C8.14896 15.2367 7.05205 16.3336 5.69896 16.3336C4.34586 16.3336 3.24896 15.2367 3.24896 13.8835C3.24896 12.5304 4.34586 11.4335 5.69896 11.4335C7.05205 11.4335 8.14896 12.5304 8.14896 13.8835ZM6.51562 13.8835C6.51562 13.4325 6.14999 13.0669 5.69896 13.0669C5.24792 13.0669 4.88229 13.4325 4.88229 13.8835C4.88229 14.3346 5.24792 14.7002 5.69896 14.7002C6.14999 14.7002 6.51562 14.3346 6.51562 13.8835ZM6.47811 9.55244C5.52132 8.59564 5.52132 7.04438 6.47811 6.08758C7.43489 5.13078 8.98615 5.13078 9.94293 6.08758C10.8997 7.04438 10.8997 8.59564 9.94293 9.55244C8.98615 10.5092 7.43489 10.5092 6.47811 9.55244ZM8.78799 7.24254C8.46906 6.92361 7.95197 6.92361 7.63305 7.24254C7.31412 7.56148 7.31412 8.07855 7.63305 8.39748C7.95197 8.71641 8.46906 8.71641 8.78799 8.39748C9.10692 8.07855 9.10692 7.56148 8.78799 7.24254Z" fill="#3C3C3B"/>
</svg>
