<svg width="29" height="29" viewBox="0 0 29 29" fill="none" xmlns="http://www.w3.org/2000/svg">
<path d="M14.2734 0.699219C21.9366 0.699219 28.1573 6.91911 28.1573 14.5827C28.1573 22.2459 21.9366 28.4662 14.2734 28.4662C6.61057 28.4662 0.390625 22.2459 0.390625 14.5827C0.390625 6.91911 6.61057 0.699219 14.2734 0.699219ZM26.2713 15.5033H24.1132V13.6518H26.2701C26.0696 11.025 25.0296 8.63481 23.4152 6.75172L21.8833 8.28254L20.5812 6.97503L22.1108 5.44726C20.2248 3.82895 17.832 2.78469 15.1993 2.58421V4.75261H13.3486V2.58421C10.7189 2.78355 8.32619 3.8259 6.44206 5.44231L7.97546 6.97503L6.6741 8.28254L5.13766 6.74678C3.52133 8.63215 2.47713 11.022 2.27666 13.6518H4.44419V15.5033H2.2759C2.34703 16.4487 2.5281 17.3628 2.80465 18.2336H25.7425C26.0198 17.3628 26.1997 16.4487 26.2713 15.5033ZM16.6182 12.2013C19.7576 15.2895 15.0365 20.0688 11.9065 16.9919C10.9011 16.0017 8.8907 11.5374 7.88492 9.55011L9.11133 8.3027C11.1149 9.27544 15.6116 11.2118 16.6182 12.2013ZM15.3195 13.5209C14.9939 13.201 12.6734 12.0693 10.7596 11.1513C11.7091 13.05 12.8796 15.3512 13.2041 15.6722C14.6002 17.0448 16.7559 14.9331 15.3195 13.5209ZM13.1367 14.5827C13.1367 13.9554 13.6446 13.4468 14.2715 13.4468C14.8988 13.4468 15.4074 13.9554 15.4074 14.5827C15.4074 15.2096 14.8988 15.7183 14.2715 15.7183C13.6446 15.7183 13.1367 15.2096 13.1367 14.5827ZM24.9775 20.084H3.5704C5.61735 24.0773 9.72987 26.6154 14.2734 26.6154C18.8184 26.6154 22.9306 24.0773 24.9775 20.084Z" fill="#3C3C3B"/>
</svg>
