<svg width="29" height="29" viewBox="0 0 29 29" fill="none" xmlns="http://www.w3.org/2000/svg">
<path d="M26.4926 20.3491L20.2656 15.5038C20.1423 14.8248 19.7724 14.2076 19.2175 13.8373L20.8821 12.1707C21.3137 12.2633 21.7453 12.325 22.146 12.325C22.6701 12.325 23.1941 12.2633 23.7182 12.109C25.2596 11.7078 26.5543 10.6894 27.3558 9.30061C28.4964 7.2946 28.4039 4.79481 27.1092 2.88138C26.955 2.66535 26.7084 2.54191 26.431 2.54191C26.1535 2.54191 25.9377 2.69621 25.7836 2.91225L24.3656 5.35032L22.6084 5.47376L21.8378 3.86896L23.225 1.43089C23.3483 1.21486 23.3483 0.906239 23.225 0.690207C23.1017 0.443314 22.855 0.289006 22.6084 0.289006C20.2964 0.103836 18.0769 1.27658 16.9363 3.28259C16.1656 4.57878 15.9498 6.12186 16.2889 7.57236L13.422 10.4425L7.19494 4.20844V2.7888C7.19494 2.51104 7.04081 2.23329 6.76336 2.10984L3.27991 0.350729C2.97164 0.196421 2.63255 0.258144 2.38593 0.505038L0.628793 2.26415C0.382177 2.51104 0.320523 2.85052 0.474658 3.15914L2.2318 6.64651C2.3551 6.8934 2.63255 7.07857 2.90999 7.07857H4.32803L10.5859 13.2818L7.719 16.1519C6.79419 15.9359 5.80773 15.9667 4.88292 16.2136C3.34157 16.6148 2.04683 17.6333 1.24533 19.022C0.104734 21.028 0.197215 23.5278 1.49195 25.4413C1.64608 25.6573 1.8927 25.7807 2.17014 25.7807C2.44759 25.7807 2.66337 25.6264 2.81751 25.4104L4.23555 22.9723L5.99269 22.8489L6.76336 24.4537L5.34532 26.8609C5.22201 27.0769 5.22201 27.3855 5.34532 27.6016C5.46863 27.8176 5.71525 28.0028 5.96186 28.0028C6.116 28.0028 6.27013 28.0336 6.42427 28.0336C8.55133 28.0336 10.5551 26.8918 11.634 25.0401C12.4047 23.6821 12.5897 22.1699 12.2814 20.7503L13.9461 19.0838C14.316 19.6393 14.9325 20.0405 15.6107 20.133L20.4505 26.3671C21.2829 27.4164 22.5159 28.0336 23.8415 28.0336C26.246 28.0336 28.1573 26.1202 28.1573 23.7439C28.1573 22.4168 27.5407 21.1823 26.4926 20.3491ZM18.2618 4.05413C18.8784 2.97397 19.9573 2.20243 21.1596 1.92467L20.2656 3.46776C20.1423 3.68379 20.1423 3.96154 20.2656 4.20844L21.4678 6.61564C21.5911 6.8934 21.8994 7.07857 22.2077 7.04771L24.8896 6.86254C25.1362 6.83168 25.3829 6.70823 25.5062 6.4922L26.4002 4.94912C26.7701 6.12186 26.6468 7.44891 25.9994 8.52907C25.4137 9.57836 24.4272 10.319 23.2866 10.6277C22.146 10.9363 20.9438 10.782 19.8957 10.1956C18.8475 9.60922 18.1077 8.62165 17.7994 7.47977C17.522 6.27617 17.6761 5.07256 18.2618 4.05413ZM16.8746 9.1463C17.3987 10.103 18.1693 10.9054 19.1558 11.4918C19.1866 11.5226 19.2483 11.5535 19.2791 11.5535L17.2445 13.5904L16.9054 13.9299L14.5009 11.5226L16.8746 9.1463ZM10.3085 24.2685C9.69193 25.3487 8.61298 26.1202 7.41073 26.398L8.30471 24.8549C8.42802 24.6388 8.42802 24.3611 8.33554 24.1142L7.13329 21.707C7.00998 21.4292 6.73254 21.2749 6.45509 21.2749C6.42427 21.2749 6.42427 21.2749 6.39344 21.2749L3.71149 21.4601C3.46488 21.491 3.21826 21.6144 3.09495 21.8304L2.20097 23.3735C1.83105 22.2008 1.95435 20.8737 2.60172 19.7936C3.18743 18.7443 4.1739 18.0036 5.31449 17.695C6.45509 17.3864 7.65734 17.5407 8.70546 18.127C10.8017 19.3615 11.5415 22.1082 10.3085 24.2685ZM13.7303 17.1086L11.6957 19.1455C11.1716 18.1888 10.4318 17.3864 9.41448 16.8C9.38366 16.7691 9.322 16.7691 9.29117 16.7383L11.6649 14.3619L14.0694 16.7691L13.7303 17.1086ZM5.22201 5.72066C5.06788 5.56635 4.88292 5.50462 4.66713 5.50462H3.40322L2.10849 2.94311L3.06413 1.9864L5.62276 3.28259V4.54791C5.62276 4.76395 5.71525 4.94912 5.83855 5.10342L15.8265 15.01L15.1483 15.689L5.22201 5.72066ZM15.0866 17.911L18.046 14.9483C18.3543 15.0409 18.6009 15.2878 18.6934 15.5964L15.734 18.5591C15.4257 18.4974 15.1791 18.2505 15.0866 17.911ZM23.8723 26.4905C23.0092 26.4905 22.2385 26.0893 21.7144 25.4413L17.0596 19.4541L19.5874 16.9234L25.5678 21.5527C26.246 22.0773 26.6159 22.8797 26.6159 23.713C26.6159 25.2561 25.3829 26.4905 23.8723 26.4905Z" fill="#3C3C3B" stroke="#3C3C3B" stroke-width="0.2"/>
</svg>
