<svg width="29" height="37" viewBox="0 0 29 37" fill="none" xmlns="http://www.w3.org/2000/svg">
<path d="M18.9024 26.9216H22.7451C23.6414 26.9211 24.4339 26.4831 24.8995 25.824C25.1112 25.5249 25.0288 25.1191 24.717 24.9171C24.4043 24.7146 23.9805 24.7934 23.7688 25.0916C23.5431 25.409 23.168 25.6158 22.7451 25.6154H18.9024C18.525 25.6154 18.2196 25.9076 18.2196 26.2685C18.2196 26.629 18.5246 26.9216 18.9024 26.9216Z" fill="#3C3C3B"/>
<path d="M27.3523 9.13143C28.107 9.13143 28.7178 8.54629 28.7178 7.82531C28.7178 7.67163 28.7178 6.08383 28.7178 6.08383C28.7178 3.21038 26.2598 0.859375 23.2555 0.859375H6.41347C3.4092 0.859375 0.951172 3.21038 0.951172 6.08383V24.8048C0.951172 27.6782 3.4092 30.0292 6.41347 30.0292H16.4277V34.8183H14.1517C13.651 34.8183 13.2413 35.2102 13.2413 35.6891C13.2413 36.1684 13.651 36.5598 14.1517 36.5598H24.1659C24.6671 36.5598 25.0763 36.1684 25.0763 35.6891C25.0763 35.2102 24.6671 34.8183 24.1659 34.8183H21.89V30.0292H23.2555C26.2598 30.0292 28.7178 27.6782 28.7178 24.8048C28.7178 24.8048 28.7178 23.217 28.7178 23.0633C28.7178 22.3423 28.107 21.7572 27.3523 21.7572C27.2935 21.7572 24.8992 21.7572 21.89 21.7572V16.0974H22.3452C22.8463 16.0974 23.2555 15.706 23.2555 15.2266C23.2555 14.7477 22.8463 14.3559 22.3452 14.3559H15.9725C15.4718 14.3559 15.0621 14.7477 15.0621 15.2266C15.0621 15.706 15.4718 16.0974 15.9725 16.0974H16.4277V21.7572C12.7688 21.7572 9.59981 21.7572 9.59981 21.7572V9.13143C9.59981 9.13143 27.192 9.13143 27.3523 9.13143ZM20.0692 34.8183H18.2484V30.0292H20.0692V34.8183ZM18.2484 21.4947L19.4137 20.9378C19.6946 20.8033 19.8084 20.4763 19.6682 20.2077C19.5275 19.9386 19.1857 19.8298 18.9048 19.9639L18.2484 20.2782V19.3182L19.4137 18.7614C19.6946 18.6269 19.8084 18.2999 19.6682 18.0313C19.5275 17.7622 19.1857 17.6534 18.9048 17.7875L18.2484 18.1014V16.0974H20.0692V21.7572C19.4688 21.7572 18.8579 21.7572 18.2484 21.7572V21.4947ZM9.59981 23.4987H26.8971V24.8048C26.8971 26.7252 25.2639 28.2878 23.2555 28.2878H6.41347C4.40562 28.2878 2.77194 26.7252 2.77194 24.8048V6.08383C2.77194 4.16341 4.40562 2.60086 6.41347 2.60086H23.2555C25.2639 2.60086 26.8971 4.16341 26.8971 6.08383V7.38994H9.59981C8.59429 7.38994 7.77904 8.16969 7.77904 9.13143V21.7572C7.77904 22.7189 8.59429 23.4987 9.59981 23.4987Z" fill="#3C3C3B"/>
</svg>
