<svg width="21" height="35" viewBox="0 0 21 35" fill="none" xmlns="http://www.w3.org/2000/svg">
<path d="M17.547 14.877C19.0006 14.877 20.1914 15.9615 20.1914 17.2854V31.7355C20.1914 33.0592 19.0006 34.1439 17.547 34.1439H3.00251C1.54899 34.1439 0.358063 33.0592 0.358063 31.7355V17.2854C0.358063 15.9615 1.54899 14.877 3.00251 14.877H17.547ZM17.547 16.0812H3.00251C2.25863 16.0812 1.68029 16.6078 1.68029 17.2854V31.7355C1.68029 32.413 2.25863 32.9397 3.00251 32.9397H17.547C18.291 32.9397 18.8692 32.413 18.8692 31.7355V17.2854C18.8692 16.6078 18.291 16.0812 17.547 16.0812Z" fill="#3C3C3B" stroke="#3C3C3B" stroke-width="0.5"/>
<path fill-rule="evenodd" clip-rule="evenodd" d="M14.9024 11.8665C15.6249 11.8665 16.2246 12.4127 16.2246 13.0708V15.4795H14.9024V13.0708H5.64684V15.4795H4.32462V13.0708C4.32462 12.4127 4.92451 11.8665 5.64684 11.8665H14.9024Z" fill="#3C3C3B" stroke="#3C3C3B" stroke-width="0.5"/>
<path fill-rule="evenodd" clip-rule="evenodd" d="M13.5803 11.8665V15.4795H12.2581V11.8665H13.5803Z" fill="#3C3C3B" stroke="#3C3C3B" stroke-width="0.5"/>
<path fill-rule="evenodd" clip-rule="evenodd" d="M10.9355 11.8665V15.4795H9.61333V11.8665H10.9355Z" fill="#3C3C3B" stroke="#3C3C3B" stroke-width="0.5"/>
<path fill-rule="evenodd" clip-rule="evenodd" d="M8.29175 11.8665V15.4795H6.96954V11.8665H8.29175Z" fill="#3C3C3B" stroke="#3C3C3B" stroke-width="0.5"/>
<path fill-rule="evenodd" clip-rule="evenodd" d="M11.5968 0.426759C11.7603 0.426505 11.918 0.481345 12.0396 0.58079C12.1613 0.680235 12.2381 0.817221 12.2554 0.965244L13.5776 12.4048L12.2631 12.5319L11.0029 1.63082H9.54895L8.28874 12.5319L6.97418 12.4048L8.29641 0.965244C8.31363 0.817634 8.39012 0.681012 8.51119 0.581624C8.63226 0.482235 8.78937 0.4271 8.95236 0.426759H11.5968Z" fill="#3C3C3B" stroke="#3C3C3B" stroke-width="0.5"/>
<path d="M10.2983 19.0917C10.4014 19.0947 10.5022 19.1197 10.5928 19.1646C10.6833 19.2095 10.7611 19.273 10.8199 19.3501C10.8199 19.3501 11.6594 20.4558 12.5011 21.7773C12.922 22.4381 13.3452 23.1553 13.671 23.8305C13.9967 24.5057 14.2417 25.1171 14.2417 25.7145C14.2417 27.7025 12.4579 29.327 10.275 29.327C8.09217 29.327 6.30836 27.7025 6.30836 25.7145C6.30836 25.1171 6.55601 24.5057 6.88167 23.8305C7.20747 23.1553 7.63071 22.4381 8.05158 21.7773C8.89331 20.4558 9.73279 19.3501 9.73279 19.3501C9.79581 19.2674 9.88059 19.2004 9.97938 19.1553C10.0782 19.1101 10.1878 19.0883 10.2983 19.0917ZM10.2772 20.8202C9.97556 21.233 9.73492 21.5344 9.19505 22.3819C8.78952 23.0185 8.38638 23.7056 8.09232 24.3151C7.79826 24.9247 7.63007 25.4807 7.63007 25.7146C7.63007 27.0517 8.80619 28.1229 10.2745 28.1229C11.7428 28.1229 12.919 27.0517 12.919 25.7146C12.919 25.4807 12.7534 24.9247 12.4594 24.3151C12.1653 23.7056 11.7622 23.0185 11.3566 22.3819C10.8172 21.5349 10.5788 21.2332 10.2772 20.8202H10.2772Z" fill="#3C3C3B" stroke="#3C3C3B" stroke-width="0.5"/>
</svg>
