<svg width="29" height="25" viewBox="0 0 29 25" fill="none" xmlns="http://www.w3.org/2000/svg">
<path d="M28.1573 0.952148H0.390625V24.7524H28.1573V0.952148ZM26.3925 2.84607V7.51773H2.15546V2.84607H26.3925ZM2.15546 22.8585V9.41165H26.3925V22.8585H2.15546Z" fill="#3C3C3B"/>
<path d="M4.92028 6.69745C5.70003 6.69745 6.33215 6.019 6.33215 5.1821C6.33215 4.34519 5.70003 3.66675 4.92028 3.66675C4.14053 3.66675 3.50842 4.34519 3.50842 5.1821C3.50842 6.019 4.14053 6.69745 4.92028 6.69745Z" fill="#3C3C3B"/>
<path d="M8.56762 6.69745C9.34737 6.69745 9.97948 6.019 9.97948 5.1821C9.97948 4.34519 9.34737 3.66675 8.56762 3.66675C7.78787 3.66675 7.15576 4.34519 7.15576 5.1821C7.15576 6.019 7.78787 6.69745 8.56762 6.69745Z" fill="#3C3C3B"/>
<path d="M12.3915 6.69745C13.1712 6.69745 13.8034 6.019 13.8034 5.1821C13.8034 4.34519 13.1712 3.66675 12.3915 3.66675C11.6117 3.66675 10.9796 4.34519 10.9796 5.1821C10.9796 6.019 11.6117 6.69745 12.3915 6.69745Z" fill="#3C3C3B"/>
<path d="M6.86157 12.1264L10.1853 16.0089L6.86157 19.8915L8.15578 21.1541L12.5679 16.0089L8.15578 10.8638L6.86157 12.1264Z" fill="#3C3C3B"/>
<path d="M21.7744 18.8181H12.8326V20.7117H21.7744V18.8181Z" fill="#3C3C3B"/>
</svg>
