<svg width="32" height="31" viewBox="0 0 32 31" fill="none" xmlns="http://www.w3.org/2000/svg">
<path d="M29.6688 7.15864H25.4131C25.986 6.41179 26.3256 5.48742 26.3256 4.48755C26.3256 2.01312 24.2476 0 21.6934 0H21.6069C19.7525 0 18.0817 1.06665 17.3502 2.71734L15.9999 5.76455L14.6496 2.71734C13.9182 1.06665 12.2474 0 10.393 0H10.3065C7.75224 0 5.67424 2.01312 5.67424 4.48755C5.67424 5.48748 6.01387 6.41179 6.5868 7.15864H2.33105V14.381H3.9018V31H28.0981V14.381H29.6688V7.15864ZM5.7768 29.1836V14.381H26.2231V29.1836H5.7768ZM7.54918 4.48755C7.54918 3.01469 8.78605 1.81641 10.3064 1.81641H10.3929C11.4967 1.81641 12.4912 2.4513 12.9266 3.43386L14.5772 7.15864H10.3064C8.78612 7.15864 7.54918 5.96036 7.54918 4.48755ZM21.6069 1.81641H21.6934C23.2137 1.81641 24.4506 3.01469 24.4506 4.48755C24.4506 5.96042 23.2137 7.15864 21.6934 7.15864H17.4226L19.0732 3.43386C19.5086 2.4513 20.5031 1.81641 21.6069 1.81641ZM18.3957 12.5646H13.6041V8.97505H18.3957V12.5646ZM4.20605 8.97505H11.7291V12.5646H4.20605V8.97505ZM27.7938 12.5646H20.2707V8.97505H27.7938V12.5646Z" fill="#95B03C"/>
<path d="M17.8998 17.5942L12.0211 25.9342H14.0996L19.9783 17.5942H17.8998Z" fill="#95B03C"/>
<path d="M19.1544 21.4067C17.8508 21.4067 16.8668 22.2526 16.8668 23.73C16.8668 25.2193 17.8507 26.0533 19.1544 26.0533C20.458 26.0533 21.4419 25.2194 21.4419 23.73C21.4419 22.2527 20.458 21.4067 19.1544 21.4067ZM19.1544 24.7666C18.8838 24.7666 18.6133 24.5283 18.6133 23.73C18.6133 22.9318 18.8838 22.6935 19.1544 22.6935C19.4249 22.6935 19.6955 22.9318 19.6955 23.73C19.6955 24.5283 19.4249 24.7666 19.1544 24.7666Z" fill="#95B03C"/>
<path d="M15.1327 19.7984C15.1327 18.3211 14.1489 17.4751 12.8452 17.4751C11.5415 17.4751 10.5576 18.321 10.5576 19.7984C10.5576 21.2877 11.5415 22.1217 12.8452 22.1217C14.1489 22.1217 15.1327 21.2877 15.1327 19.7984ZM12.3041 19.7984C12.3041 19.0002 12.5746 18.7618 12.8452 18.7618C13.1157 18.7618 13.3863 19.0001 13.3863 19.7984C13.3863 20.5967 13.1157 20.835 12.8452 20.835C12.5746 20.835 12.3041 20.5967 12.3041 19.7984Z" fill="#95B03C"/>
</svg>
