<svg width="25" height="23" viewBox="0 0 25 23" fill="none" xmlns="http://www.w3.org/2000/svg">
<path fill-rule="evenodd" clip-rule="evenodd" d="M10.8823 15.1834C10.7925 15.4355 10.6472 15.6664 10.4561 15.8608C10.2649 16.0551 10.0324 16.2083 9.774 16.3102C9.51561 16.4121 9.23735 16.4603 8.95782 16.4515C8.6783 16.4428 8.40396 16.3773 8.15316 16.2595L4.10149 20.1127C4.30694 20.5097 4.35763 20.9632 4.24451 21.3925C4.13139 21.8217 3.86181 22.1988 3.48383 22.4565C3.10584 22.7142 2.644 22.8357 2.18062 22.7995C1.71723 22.7633 1.28241 22.5717 0.953649 22.2587C0.624884 21.9458 0.423536 21.5319 0.38549 21.0909C0.347444 20.6498 0.47517 20.2102 0.745907 19.8505C1.01664 19.4907 1.4128 19.2341 1.86377 19.1264C2.31474 19.0188 2.79123 19.067 3.20832 19.2626L7.25578 15.4101C7.13389 15.1804 7.06312 14.9293 7.04789 14.6723C7.03267 14.4154 7.07332 14.1582 7.1673 13.917C7.26128 13.6757 7.40657 13.4554 7.59407 13.27C7.78157 13.0846 8.00726 12.9381 8.25701 12.8395C8.50675 12.7409 8.77519 12.6925 9.04551 12.6972C9.31583 12.7019 9.58222 12.7597 9.82801 12.8668C10.0738 12.974 10.2937 13.1284 10.474 13.3202C10.6542 13.512 10.791 13.7371 10.8756 13.9815H13.8329C13.9306 13.7091 14.0929 13.4618 14.3072 13.2588C14.5215 13.0558 14.7821 12.9025 15.0687 12.8109V10.0065C14.8076 9.93005 14.5662 9.80268 14.3597 9.63245C14.1533 9.46223 13.9864 9.25291 13.8697 9.01785C13.753 8.78279 13.6891 8.52716 13.682 8.26727C13.675 8.00738 13.7249 7.74894 13.8287 7.50845C13.9324 7.26797 14.0878 7.05072 14.2847 6.87057C14.4816 6.69042 14.7158 6.55133 14.9724 6.46218C15.229 6.37303 15.5023 6.33578 15.7748 6.35281C16.0474 6.36983 16.3132 6.44076 16.5554 6.56106L20.6112 2.70061C20.4054 2.30405 20.3542 1.85083 20.4668 1.42169C20.5793 0.992551 20.8482 0.615377 21.2257 0.357373C21.6031 0.0993684 22.0645 -0.0227071 22.5277 0.0128972C22.9909 0.0485015 23.4258 0.239473 23.7548 0.551784C24.0839 0.864096 24.2857 1.27746 24.3244 1.71822C24.3632 2.15899 24.2362 2.59852 23.9662 2.9585C23.6962 3.31848 23.3007 3.57553 22.8502 3.68385C22.3996 3.79216 21.9233 3.74471 21.5061 3.54994L17.4367 7.42402C17.5545 7.65964 17.6192 7.91608 17.6267 8.1769C17.6342 8.43771 17.5843 8.69714 17.4804 8.93855C17.3764 9.17996 17.2205 9.39802 17.0228 9.57875C16.8251 9.75948 16.5899 9.89889 16.3323 9.98804V12.8181C16.6479 12.9213 16.9306 13.0994 17.1539 13.3354C17.3771 13.5715 17.5335 13.8578 17.6084 14.1673C17.6832 14.4768 17.674 14.7994 17.5815 15.1046C17.4891 15.4098 17.3165 15.6876 17.0801 15.9117C16.8437 16.1358 16.5511 16.299 16.2301 16.3857C15.9091 16.4724 15.5702 16.4799 15.2453 16.4074C14.9204 16.335 14.6202 16.1849 14.3731 15.9715C14.126 15.758 13.9401 15.4882 13.8329 15.1874L10.8823 15.1834Z" fill="#95B03C"/>
<path fill-rule="evenodd" clip-rule="evenodd" d="M4.30293 1.86933C4.30293 2.23905 4.18774 2.60047 3.97194 2.90788C3.75614 3.21529 3.44941 3.45489 3.09054 3.59637C2.73167 3.73786 2.33679 3.77488 1.95581 3.70275C1.57484 3.63062 1.2249 3.45258 0.950233 3.19115C0.675568 2.92972 0.488518 2.59664 0.412738 2.23402C0.336958 1.87141 0.375851 1.49555 0.524499 1.15397C0.673146 0.812395 0.924872 0.520445 1.24784 0.31504C1.57082 0.109635 1.95053 0 2.33896 0C2.85984 0 3.35938 0.196946 3.7277 0.547514C4.09601 0.898082 4.30293 1.37355 4.30293 1.86933ZM4.30293 8.22491C4.30293 8.59466 4.18772 8.95611 3.97188 9.26354C3.75604 9.57096 3.44926 9.81056 3.09035 9.95202C2.73143 10.0935 2.3365 10.1305 1.95551 10.0583C1.57451 9.98607 1.22457 9.80795 0.949935 9.54644C0.675303 9.28493 0.48832 8.95177 0.412635 8.5891C0.336951 8.22643 0.375963 7.85055 0.52474 7.50899C0.673517 7.16743 0.925375 6.87553 1.24846 6.67022C1.57154 6.46491 1.95134 6.35542 2.33981 6.35557C2.86047 6.356 3.35967 6.55311 3.72775 6.90361C4.09583 7.25411 4.30271 7.72933 4.30293 8.22491ZM10.9811 8.22491C10.9811 8.59463 10.8659 8.95604 10.6501 9.26345C10.4343 9.57086 10.1276 9.81046 9.76869 9.95195C9.40983 10.0934 9.01494 10.1304 8.63397 10.0583C8.25299 9.98619 7.90305 9.80816 7.62838 9.54672C7.35372 9.28529 7.16667 8.95221 7.09089 8.58959C7.01511 8.22698 7.054 7.85112 7.20265 7.50954C7.3513 7.16797 7.60302 6.87602 7.926 6.67061C8.24897 6.46521 8.62868 6.35557 9.01712 6.35557C9.53792 6.35579 10.0373 6.5528 10.4056 6.90332C10.7739 7.25385 10.9809 7.72919 10.9811 8.22491ZM10.9811 1.86933C10.9811 2.23905 10.8659 2.60047 10.6501 2.90788C10.4343 3.21529 10.1276 3.45489 9.76869 3.59637C9.40983 3.73786 9.01494 3.77488 8.63397 3.70275C8.25299 3.63062 7.90305 3.45258 7.62838 3.19115C7.35372 2.92972 7.16667 2.59664 7.09089 2.23402C7.01511 1.87141 7.054 1.49555 7.20265 1.15397C7.3513 0.812395 7.60302 0.520445 7.926 0.31504C8.24897 0.109635 8.62868 0 9.01712 0C9.53792 0.000212342 10.0373 0.197227 10.4056 0.547749C10.7739 0.898271 10.9809 1.37362 10.9811 1.86933ZM17.6314 1.86933C17.6314 2.23891 17.5163 2.60021 17.3007 2.90755C17.085 3.21489 16.7785 3.45448 16.4198 3.59606C16.0612 3.73764 15.6665 3.77485 15.2856 3.70298C14.9047 3.63111 14.5547 3.45339 14.2799 3.19228C14.0051 2.93117 13.8178 2.59839 13.7417 2.23598C13.6655 1.87358 13.7039 1.49782 13.8521 1.15619C14.0002 0.814558 14.2514 0.522385 14.5739 0.316595C14.8964 0.110806 15.2758 0.000633661 15.6641 0C16.185 0 16.6845 0.196946 17.0529 0.547514C17.4212 0.898082 17.6281 1.37355 17.6281 1.86933H17.6314ZM24.3399 8.22491C24.3399 8.59466 24.2247 8.95611 24.0089 9.26354C23.793 9.57096 23.4862 9.81056 23.1273 9.95202C22.7684 10.0935 22.3735 10.1305 21.9925 10.0583C21.6115 9.98607 21.2615 9.80795 20.9869 9.54644C20.7123 9.28493 20.5253 8.95177 20.4496 8.5891C20.3739 8.22643 20.4129 7.85055 20.5617 7.50899C20.7105 7.16743 20.9623 6.87553 21.2854 6.67022C21.6085 6.46491 21.9883 6.35542 22.3768 6.35557C22.8969 6.35664 23.3954 6.55405 23.7628 6.9045C24.1302 7.25495 24.3365 7.72982 24.3365 8.22491H24.3399ZM24.3399 14.5813C24.3399 14.951 24.2247 15.3125 24.0089 15.6199C23.793 15.9273 23.4862 16.1669 23.1273 16.3084C22.7684 16.4499 22.3735 16.4868 21.9925 16.4146C21.6115 16.3424 21.2615 16.1643 20.9869 15.9028C20.7123 15.6413 20.5253 15.3081 20.4496 14.9455C20.3739 14.5828 20.4129 14.2069 20.5617 13.8654C20.7105 13.5238 20.9623 13.2319 21.2854 13.0266C21.6085 12.8213 21.9883 12.7118 22.3768 12.7119C22.8972 12.713 23.3959 12.9106 23.7634 13.2614C24.1308 13.6122 24.337 14.0875 24.3365 14.5829L24.3399 14.5813ZM24.3399 20.9377C24.3402 21.3073 24.2254 21.6688 24.0099 21.9764C23.7944 22.284 23.488 22.5238 23.1293 22.6656C22.7706 22.8074 22.3758 22.8448 21.9948 22.773C21.6137 22.7013 21.2636 22.5236 20.9887 22.2625C20.7138 22.0014 20.5264 21.6685 20.4501 21.306C20.3739 20.9435 20.4124 20.5676 20.5606 20.2259C20.7088 19.8842 20.9601 19.592 21.2828 19.3862C21.6055 19.1805 21.985 19.0704 22.3734 19.0699C22.8939 19.0699 23.3931 19.2667 23.7613 19.6169C24.1294 19.9672 24.3363 20.4422 24.3365 20.9377H24.3399ZM17.6314 20.9377C17.6318 21.3073 17.517 21.6688 17.3015 21.9763C17.0861 22.2839 16.7796 22.5237 16.421 22.6655C16.0624 22.8074 15.6676 22.8448 15.2866 22.7731C14.9056 22.7014 14.5555 22.5238 14.2805 22.2628C14.0056 22.0017 13.8181 21.6689 13.7418 21.3065C13.6655 20.944 13.7038 20.5682 13.8519 20.2265C14 19.8848 14.2512 19.5925 14.5737 19.3866C14.8963 19.1808 15.2758 19.0706 15.6641 19.0699C16.1847 19.0699 16.684 19.2667 17.0523 19.6169C17.4205 19.9671 17.6276 20.4422 17.6281 20.9377H17.6314ZM10.9811 20.9377C10.9814 21.3074 10.8665 21.669 10.6509 21.9766C10.4353 22.2843 10.1287 22.5241 9.76986 22.6658C9.41102 22.8076 9.01608 22.8448 8.635 22.7729C8.25392 22.7009 7.90381 22.523 7.62898 22.2616C7.35415 22.0003 7.16693 21.6672 7.09101 21.3045C7.0151 20.9419 7.05389 20.5659 7.20249 20.2243C7.35109 19.8826 7.60281 19.5906 7.92582 19.3851C8.24883 19.1796 8.62861 19.0699 9.01712 19.0699C9.53763 19.0701 10.0368 19.2669 10.405 19.6171C10.7732 19.9673 10.9804 20.4422 10.9811 20.9377ZM4.30293 14.5829C4.30293 14.9526 4.18772 15.3141 3.97188 15.6215C3.75604 15.9289 3.44926 16.1685 3.09035 16.31C2.73143 16.4515 2.3365 16.4884 1.95551 16.4162C1.57451 16.344 1.22457 16.1659 0.949935 15.9044C0.675303 15.6429 0.48832 15.3097 0.412635 14.9471C0.336951 14.5844 0.375963 14.2085 0.52474 13.867C0.673517 13.5254 0.925375 13.2335 1.24846 13.0282C1.57154 12.8229 1.95134 12.7134 2.33981 12.7136C2.86047 12.714 3.35967 12.9111 3.72775 13.2616C4.09583 13.6121 4.30271 14.0873 4.30293 14.5829Z" fill="#3C3C3B"/>
</svg>
