<svg width="31" height="28" viewBox="0 0 31 28" fill="none" xmlns="http://www.w3.org/2000/svg">
<path d="M21.56 27.3689H3.38151C3.03923 27.3689 2.76172 27.0902 2.76172 26.7464V24.7456C2.76172 22.9756 4.19529 21.5356 5.95752 21.5356H19.0809C20.7895 21.5356 22.1798 22.9321 22.1798 24.6484V26.7464C22.1798 27.0902 21.9023 27.3689 21.56 27.3689ZM4.0013 26.1239H20.9403V24.6484C20.9403 23.6185 20.1062 22.7807 19.0809 22.7807H5.95752C4.87894 22.7807 4.0013 23.6623 4.0013 24.7456V26.1239Z" fill="#3C3C3B" stroke="#3C3C3B" stroke-width="0.5"/>
<path d="M9.44981 22.7809C9.23555 22.7809 9.02733 22.6693 8.91233 22.4696L1.68547 9.89418C1.51479 9.59689 1.61556 9.21723 1.91093 9.04457L1.98538 9.0011C2.28105 8.82784 2.66025 8.92936 2.83275 9.22665C2.89086 9.32727 2.91779 9.43731 2.91658 9.54583L9.98607 21.8471C10.1571 22.145 10.0554 22.5256 9.7591 22.6976C9.66135 22.7541 9.55482 22.7809 9.44981 22.7809Z" fill="#3C3C3B" stroke="#3C3C3B" stroke-width="0.5"/>
<path d="M16.5281 22.7809C16.3139 22.7809 16.1056 22.6693 15.9909 22.4696L8.38003 9.23421C8.20874 8.93662 8.31012 8.55574 8.6067 8.38399C8.90238 8.21073 9.28218 8.31378 9.45317 8.61167L17.0641 21.8471C17.2354 22.1446 17.134 22.5255 16.8374 22.6973C16.74 22.7541 16.6331 22.7809 16.5281 22.7809Z" fill="#3C3C3B" stroke="#3C3C3B" stroke-width="0.5"/>
<path d="M5.03642 11.2585C3.85252 11.2585 2.72824 10.8089 1.87058 9.99212C0.938472 9.13005 0.400391 7.89439 0.400391 6.60828C0.400391 4.04394 2.48008 1.95776 5.03642 1.95776C6.72935 1.95776 8.2867 2.8858 9.10078 4.37953C9.4703 5.04949 9.6664 5.82098 9.6664 6.60828C9.6664 7.35119 9.49935 8.05276 9.16948 8.69324C9.06084 8.9194 8.93766 9.12397 8.80057 9.30332C7.95532 10.5192 6.54202 11.2585 5.03642 11.2585ZM5.03642 3.20284C3.16373 3.20284 1.63998 4.73062 1.63998 6.60828C1.63998 7.54756 2.03249 8.44915 2.71705 9.08263C3.34985 9.68511 4.1712 10.0134 5.03642 10.0134C6.13771 10.0134 7.1712 9.47294 7.80098 8.56739C7.90387 8.43213 7.98104 8.30233 8.06094 8.13636C8.30637 7.65942 8.42682 7.15026 8.42682 6.60828C8.42682 6.03163 8.28428 5.46867 8.01494 4.98019C7.41693 3.88284 6.27631 3.20284 5.03642 3.20284Z" fill="#3C3C3B" stroke="#3C3C3B" stroke-width="0.5"/>
<path d="M14.8537 5.30096H8.5568C8.21453 5.30096 7.93701 5.02206 7.93701 4.67807C7.93701 4.33408 8.21453 4.05518 8.5568 4.05518H14.8537C15.196 4.05518 15.4735 4.33408 15.4735 4.67807C15.4735 5.02206 15.196 5.30096 14.8537 5.30096Z" fill="#3C3C3B" stroke="#3C3C3B" stroke-width="0.5"/>
<path d="M14.8539 9.54633H8.91654C8.57427 9.54633 8.29675 9.26742 8.29675 8.92343C8.29675 8.57944 8.57427 8.30054 8.91654 8.30054H14.8539C15.1962 8.30054 15.4737 8.57944 15.4737 8.92343C15.4737 9.26742 15.1962 9.54633 14.8539 9.54633Z" fill="#3C3C3B" stroke="#3C3C3B" stroke-width="0.5"/>
<path d="M18.4365 10.8653H15.4985C14.8013 10.8653 14.2341 10.2957 14.2341 9.59532V3.96145C14.2341 3.25775 14.8013 2.68506 15.4985 2.68506H18.4365C18.6726 2.68506 18.9041 2.75254 19.1065 2.87991C19.4794 3.1167 19.7009 3.52069 19.7009 3.96145V9.59532C19.7009 9.84883 19.6268 10.0911 19.4869 10.2963C19.2727 10.6437 18.8744 10.8653 18.4365 10.8653ZM15.4985 3.93014L15.4737 9.59532L18.4365 9.62025L18.4613 3.96145C18.4613 3.94777 18.4607 3.9426 18.4459 3.93348L15.4985 3.93014Z" fill="#3C3C3B" stroke="#3C3C3B" stroke-width="0.5"/>
<path d="M29.4934 4.49765C29.4205 4.49765 29.3464 4.48458 29.2743 4.45722L22.5541 1.90376L19.0908 3.94464C18.796 4.11823 18.4156 4.01912 18.2428 3.7227C18.0694 3.42629 18.1683 3.04474 18.4637 2.87084L22.1824 0.679168C22.3444 0.583706 22.5402 0.567897 22.7151 0.633565L29.7125 3.29221C30.0327 3.41413 30.1943 3.77348 30.0733 4.09482C29.9795 4.34412 29.7437 4.49735 29.4934 4.49765Z" fill="#3C3C3B" stroke="#3C3C3B" stroke-width="0.5"/>
<path d="M22.5704 12.6212C22.4641 12.6212 22.3585 12.5938 22.2638 12.5397L18.6691 10.4852C18.3716 10.3152 18.2678 9.9349 18.437 9.63605C18.6059 9.33751 18.9845 9.23292 19.2823 9.40287L22.62 11.3106L29.3048 8.68569C29.625 8.55983 29.983 8.71913 30.1077 9.03866C30.2324 9.35909 30.075 9.72026 29.7564 9.84522L22.7961 12.5783C22.7232 12.6069 22.6466 12.6212 22.5704 12.6212Z" fill="#3C3C3B" stroke="#3C3C3B" stroke-width="0.5"/>
<path d="M5.03325 8.80461C3.82696 8.80461 2.84583 7.81912 2.84583 6.60778C2.84583 5.39613 3.82696 4.41064 5.03325 4.41064C6.23924 4.41064 7.22038 5.39613 7.22038 6.60778C7.22038 7.81912 6.23924 8.80461 5.03325 8.80461ZM5.03325 5.65573C4.51061 5.65573 4.08541 6.08281 4.08541 6.60778C4.08541 7.13244 4.51061 7.55953 5.03325 7.55953C5.55559 7.55953 5.98079 7.13244 5.98079 6.60778C5.98079 6.08281 5.55559 5.65573 5.03325 5.65573Z" fill="#3C3C3B" stroke="#3C3C3B" stroke-width="0.5"/>
</svg>
