<svg width="30" height="31" viewBox="0 0 30 31" fill="none" xmlns="http://www.w3.org/2000/svg">
<path d="M4.53038 6.91273H7.57991V8.77565H6.3129C6.06136 8.77565 5.85782 8.97854 5.85782 9.22877V12.444C5.85782 12.6942 6.06136 12.8971 6.3129 12.8971H8.34874V14.7673C8.34874 15.0175 8.55228 15.2204 8.80381 15.2204H11.0414V20.1184C11.0414 20.2428 11.0925 20.3616 11.1832 20.4472L14.8193 23.8808V27.7177H15.7295V23.8808L19.3652 20.4472C19.4558 20.3616 19.507 20.2428 19.507 20.1184V15.2204H21.7446C21.9961 15.2204 22.1996 15.0175 22.1996 14.7673V12.8971H24.2359C24.4874 12.8971 24.691 12.6942 24.691 12.444V9.22877C24.691 8.97854 24.4874 8.77565 24.2359 8.77565H22.9689V6.91273H26.0184C26.1873 6.91273 26.342 6.81981 26.4206 6.67135L29.112 1.60121L28.3076 1.17773L25.7442 6.0065C20.7477 6.0065 9.46455 6.0065 4.80458 6.0065L2.24078 1.17773L1.4364 1.60121L4.12819 6.67135C4.20685 6.81981 4.3615 6.91273 4.53038 6.91273ZM6.76797 9.68189C6.88738 9.68189 8.61012 9.68189 8.56339 9.68189V11.9908H6.76797V9.68189ZM21.0748 11.9908H19.483V9.68189H21.0748V11.9908ZM18.5728 11.9908H16.9805V9.68189H18.5728V11.9908ZM16.0703 11.9908H14.478V9.68189H16.0703V11.9908ZM13.5679 11.9908H11.976V9.68189H13.5679V11.9908ZM11.0659 11.9908H9.47353V9.68189H11.0659V11.9908ZM18.5968 19.9237L15.2744 23.0613L11.9516 19.9237V15.2204H18.5968V19.9237ZM21.2895 14.3142C17.6868 14.3142 12.8517 14.3142 9.25889 14.3142V12.8971H21.2895V14.3142ZM23.7808 11.9908H21.985V9.68189C22.6334 9.68189 23.8276 9.68189 23.7808 9.68189V11.9908ZM22.0587 6.91273V8.77565H8.49006V6.91273H22.0587Z" fill="#3C3C3B" stroke="#3C3C3B" stroke-width="0.8"/>
<path d="M29.1573 29.0298H1.39062V29.9366H29.1573V29.0298Z" fill="#3C3C3B" stroke="#3C3C3B" stroke-width="0.8"/>
</svg>
