<svg width="31" height="27" viewBox="0 0 31 27" fill="none" xmlns="http://www.w3.org/2000/svg">
<path d="M29.6412 6.91824H0.909627C0.628407 6.91824 0.400391 6.68465 0.400391 6.39654V1.25022C0.400391 0.962112 0.628407 0.728516 0.909627 0.728516H29.6412C29.9224 0.728516 30.1504 0.962115 30.1504 1.25022V6.39654C30.1504 6.68465 29.9224 6.91824 29.6412 6.91824ZM1.41886 5.87484H29.1319V1.77192H1.41886V5.87484Z" fill="#3C3C3B" stroke="#3C3C3B" stroke-width="0.8"/>
<path d="M27.8932 26.5121H2.65767C2.37645 26.5121 2.14844 26.2785 2.14844 25.9904V6.39646C2.14844 6.10835 2.37645 5.87476 2.65767 5.87476H27.8932C28.1745 5.87476 28.4025 6.10835 28.4025 6.39646V25.9904C28.4025 26.2786 28.1745 26.5121 27.8932 26.5121ZM3.16691 25.4687H27.384V6.91816H3.16691V25.4687Z" fill="#3C3C3B" stroke="#3C3C3B" stroke-width="0.8"/>
<path d="M19.0851 12.9509H11.4653C10.4079 12.9509 9.54761 12.0773 9.54761 11.0036C9.54761 9.92999 10.4079 9.0564 11.4653 9.0564H19.0851C20.1334 9.0564 20.9859 9.92999 20.9859 11.0036C20.9859 12.0773 20.1334 12.9509 19.0851 12.9509ZM11.4653 10.0998C10.9695 10.0998 10.5661 10.5053 10.5661 11.0036C10.5661 11.502 10.9695 11.9075 11.4653 11.9075H19.0851C19.5634 11.9075 19.9674 11.4936 19.9674 11.0036C19.9674 10.5137 19.5634 10.0998 19.0851 10.0998H11.4653Z" fill="#3C3C3B" stroke="#3C3C3B" stroke-width="0.8"/>
<path d="M21.4273 23.3306H9.12349C8.84227 23.3306 8.61426 23.097 8.61426 22.8089V16.6545C8.61426 16.3664 8.84227 16.1328 9.12349 16.1328H21.4273C21.7085 16.1328 21.9366 16.3664 21.9366 16.6545V22.8089C21.9366 23.097 21.7085 23.3306 21.4273 23.3306ZM9.63273 22.2872H20.9181V17.1762H9.63273V22.2872Z" fill="#3C3C3B" stroke="#3C3C3B" stroke-width="0.8"/>
</svg>
