<svg width="33" height="33" viewBox="0 0 33 33" fill="none" xmlns="http://www.w3.org/2000/svg">
<path d="M3.59014 16.7541C3.57209 16.8044 3.5513 16.8542 3.52832 16.9024C3.21974 17.5415 2.47072 17.9382 1.74851 17.8047C1.07882 17.6805 0.518018 17.0966 0.423364 16.4192C0.351144 15.9043 0.54045 15.3604 0.916327 15.002C1.21451 14.7174 1.62048 14.5527 2.03849 14.5484C2.04505 14.5484 2.05216 14.5484 2.05928 14.5484C2.66167 14.5544 3.24381 14.915 3.51464 15.4518C3.54364 15.5081 3.5688 15.5667 3.59014 15.6263H10.2563V13.454H7.97373C7.95403 13.5103 7.9316 13.5651 7.90534 13.6187C7.59731 14.2583 6.84829 14.6551 6.12608 14.521C5.4564 14.3968 4.89559 13.8135 4.80039 13.1355C4.72872 12.6239 4.91529 12.0838 5.28679 11.7254C5.58607 11.4365 5.99313 11.269 6.41551 11.2652C6.42262 11.2652 6.42974 11.2652 6.43685 11.2652C7.05018 11.2712 7.64053 11.6455 7.90534 12.1949C7.9316 12.2485 7.95403 12.3032 7.97373 12.3596H10.2563V10.718C10.2657 10.6365 10.2755 10.5539 10.3105 10.4805C10.3641 10.3689 10.4566 10.2775 10.5666 10.225C10.6656 10.1769 10.6962 10.1829 10.8035 10.1708H12.4454V7.88632C11.889 7.68221 11.4496 7.16184 11.367 6.56868C11.2953 6.05815 11.4808 5.51753 11.8529 5.15857C12.1521 4.86965 12.5592 4.70221 12.9821 4.69838C12.9887 4.69838 12.9958 4.69838 13.0029 4.69838C13.6092 4.70386 14.194 5.06938 14.4627 5.61C14.6848 6.05596 14.6881 6.60315 14.472 7.05185C14.2865 7.43598 13.9418 7.73255 13.5397 7.8792V10.1708H15.7282V3.50989C15.7008 3.50004 15.6729 3.48964 15.6456 3.47815C15.122 3.26037 14.7291 2.75422 14.6498 2.19061C14.5787 1.68227 14.7619 1.14548 15.1291 0.787613C15.4289 0.494319 15.8409 0.324143 16.2649 0.320312C16.272 0.320312 16.2791 0.320312 16.2862 0.320312C16.8925 0.325784 17.4773 0.691855 17.746 1.23193C17.9676 1.67789 17.9714 2.22508 17.7547 2.67378C17.5704 3.05736 17.2246 3.34956 16.823 3.49511V10.1708H19.0115V7.88632C18.4551 7.68221 18.0163 7.16184 17.9331 6.56868C17.862 6.06034 18.0453 5.52355 18.4118 5.16514C18.7122 4.87239 19.1258 4.70221 19.5482 4.69838C19.5553 4.69838 19.5619 4.69838 19.569 4.69838C20.1752 4.70386 20.7601 5.06938 21.0293 5.61C21.2509 6.05596 21.2542 6.60315 21.0381 7.05185C20.8526 7.43598 20.5079 7.73255 20.1057 7.8792V10.1708H21.7471L21.8691 10.1845C21.9857 10.225 22.0995 10.2819 22.175 10.3766C22.2264 10.4411 22.2625 10.5161 22.2806 10.596C22.2899 10.6359 22.2899 10.6775 22.2948 10.718V12.3596H24.5807C24.6644 12.1238 24.7996 11.9071 24.9785 11.7325C25.2783 11.4392 25.6919 11.269 26.1143 11.2652C26.1214 11.2652 26.1285 11.2652 26.1356 11.2652C26.7413 11.2707 27.3262 11.6362 27.5954 12.1768C27.817 12.6228 27.8208 13.17 27.6041 13.6187C27.2961 14.2583 26.5465 14.6551 25.8249 14.521C25.2624 14.417 24.7777 13.9891 24.5796 13.454H22.2948V15.6263H28.9643C29.0513 15.3883 29.1919 15.1694 29.3768 14.9954C29.6756 14.7142 30.0799 14.5527 30.4919 14.5484C30.499 14.5484 30.5056 14.5484 30.5127 14.5484C31.126 14.5544 31.7169 14.9287 31.9817 15.4786C32.1945 15.9202 32.1951 16.4597 31.9817 16.9024C31.6731 17.5415 30.9241 17.9382 30.2025 17.8047C29.646 17.7013 29.1651 17.2816 28.9632 16.7541H22.2948V18.9264H24.5807C24.6666 18.6851 24.8067 18.4624 24.9921 18.2857C25.2909 18.0011 25.6963 17.8359 26.1143 17.8321C26.1214 17.8321 26.1285 17.8321 26.1351 17.8321C26.7451 17.8381 27.3328 18.208 27.5998 18.753C27.8175 19.1973 27.8186 19.7407 27.6041 20.1855C27.2961 20.8252 26.5465 21.2219 25.8249 21.0878C25.2624 20.9839 24.7777 20.556 24.5796 20.0208H22.2948V21.6629C22.2806 21.7855 22.2505 21.9092 22.175 22.0038C22.1241 22.0684 22.059 22.1204 21.9846 22.156C21.8856 22.2036 21.8549 22.1981 21.7471 22.2101H20.1057V24.4979C20.5035 24.6435 20.8471 24.939 21.0337 25.3198C21.2509 25.7641 21.2525 26.3075 21.0381 26.7529C20.683 27.4889 19.7337 27.8916 18.9289 27.5567C18.4042 27.3389 18.0119 26.8311 17.9331 26.2697C17.8609 25.7548 18.0502 25.2109 18.4261 24.8525C18.5929 24.6933 18.7937 24.5712 19.0115 24.4941V22.2101H16.823V28.8765C17.2207 29.0215 17.5643 29.317 17.7504 29.6979C17.9681 30.1422 17.9692 30.6856 17.7547 31.1304C17.3997 31.8669 16.4504 32.2697 15.6456 31.9348C15.122 31.717 14.7291 31.2109 14.6498 30.6478C14.5792 30.1433 14.7587 29.6098 15.122 29.2508C15.2932 29.0817 15.5017 28.9526 15.7282 28.8722V22.2101H13.5397V24.4979C13.9374 24.6435 14.281 24.939 14.4676 25.3198C14.6848 25.7641 14.6864 26.3075 14.472 26.7529C14.1163 27.4894 13.1671 27.8921 12.3628 27.5567C11.8381 27.3389 11.4453 26.8311 11.367 26.2697C11.2948 25.7548 11.4841 25.2109 11.86 24.8525C12.0269 24.6933 12.2277 24.5712 12.4454 24.4941V22.2101H10.8035C10.6809 22.1959 10.5573 22.1663 10.4626 22.0908C10.3981 22.0394 10.3466 21.9743 10.3105 21.9004C10.2629 21.8008 10.2684 21.7702 10.2563 21.6629V20.0208H7.97373C7.95403 20.0772 7.9316 20.1324 7.90534 20.1861C7.59731 20.8252 6.84829 21.2219 6.12608 21.0878C5.4564 20.9636 4.89559 20.3803 4.80039 19.7029C4.72872 19.1874 4.91802 18.6441 5.2939 18.2857C5.59208 18.0011 5.99805 17.8359 6.41551 17.8321C6.42262 17.8321 6.42974 17.8321 6.43685 17.8321C7.04635 17.8381 7.63451 18.208 7.90096 18.753C7.92887 18.8093 7.95294 18.8673 7.97373 18.9264H10.2563V16.7541H3.59014ZM16.272 29.8713C15.912 29.8752 15.616 30.2998 15.7791 30.6494C15.8967 30.9006 16.2233 31.0314 16.4821 30.9258C16.7672 30.8092 16.9094 30.4267 16.7524 30.1499C16.6588 29.9857 16.4794 29.8757 16.2862 29.8713C16.2813 29.8713 16.2769 29.8713 16.272 29.8713ZM19.5548 25.4933C19.1948 25.4971 18.8971 25.9234 19.0635 26.2747C19.1822 26.5236 19.5072 26.6533 19.7649 26.5477C20.0488 26.4317 20.1916 26.0509 20.0368 25.7745C19.9438 25.6087 19.7632 25.4982 19.5696 25.4938C19.5646 25.4933 19.5597 25.4933 19.5548 25.4933ZM12.9887 25.4933C12.6292 25.4971 12.3327 25.9217 12.4963 26.2714C12.6134 26.5225 12.94 26.6533 13.1988 26.5477C13.4828 26.4317 13.625 26.0509 13.4707 25.7745C13.3777 25.6087 13.1966 25.4982 13.0035 25.4938C12.9986 25.4933 12.9936 25.4933 12.9887 25.4933ZM11.3512 11.2652V21.1157H21.2V11.2652H11.3512ZM6.42262 18.9264C6.06261 18.9297 5.76498 19.3565 5.9313 19.7073C6.04948 19.9568 6.37502 20.0859 6.63272 19.9809C6.91668 19.8649 7.05893 19.484 6.90464 19.2077C6.81163 19.0419 6.63053 18.9308 6.43685 18.9264C6.43247 18.9264 6.42755 18.9264 6.42262 18.9264ZM26.1214 18.9264C25.7609 18.9297 25.4632 19.3565 25.6301 19.7073C25.7483 19.9568 26.0738 20.0859 26.331 19.9809C26.6155 19.8649 26.7577 19.484 26.6029 19.2077C26.5104 19.0419 26.3293 18.9308 26.1356 18.9264C26.1307 18.9264 26.1258 18.9264 26.1214 18.9264ZM2.58726 16.1111C2.5796 16.0477 2.56045 15.9853 2.52871 15.9273C2.43625 15.7598 2.2546 15.6477 2.05982 15.6433C2.0549 15.6433 2.04998 15.6433 2.04505 15.6433C1.68504 15.6466 1.3874 16.0734 1.55373 16.4241C1.67246 16.6736 1.99745 16.8028 2.25515 16.6972C2.43953 16.6222 2.56428 16.4356 2.58726 16.2386C2.58233 16.1965 2.58233 16.1538 2.58726 16.1111ZM29.9601 16.2266C29.9617 16.2917 29.9765 16.3579 30.006 16.4208C30.1231 16.672 30.4498 16.8033 30.7085 16.6972C30.9931 16.5812 31.1353 16.2009 30.9805 15.9245C30.8875 15.7582 30.7069 15.6477 30.5132 15.6433C30.5083 15.6433 30.5034 15.6433 30.4984 15.6433C30.2161 15.646 29.9721 15.9092 29.9606 16.1916C29.9606 16.2031 29.9606 16.2151 29.9601 16.2266ZM6.42262 12.3596C6.06316 12.3629 5.76498 12.7897 5.9313 13.1404C6.04948 13.39 6.37502 13.5191 6.63272 13.414C6.91668 13.2975 7.05893 12.9172 6.90464 12.6409C6.81163 12.4751 6.63053 12.364 6.43685 12.3596C6.43247 12.3596 6.42755 12.3596 6.42262 12.3596ZM26.1214 12.3596C25.7614 12.3629 25.4632 12.7897 25.6301 13.1404C25.7483 13.39 26.0738 13.5191 26.331 13.414C26.6155 13.2975 26.7577 12.9172 26.6029 12.6409C26.5104 12.4751 26.3293 12.364 26.1356 12.3596C26.1307 12.3596 26.1258 12.3596 26.1214 12.3596ZM19.5548 5.79276C19.1948 5.79605 18.8971 6.22286 19.0635 6.57361C19.1822 6.82312 19.5072 6.95226 19.7649 6.84665C20.0488 6.73065 20.1916 6.35035 20.0368 6.07402C19.9438 5.90767 19.7632 5.79714 19.5696 5.79276C19.5646 5.79276 19.5597 5.79276 19.5548 5.79276ZM12.9887 5.79276C12.7469 5.79495 12.5165 5.97443 12.4602 6.21301C12.4005 6.46198 12.5428 6.74378 12.7797 6.84446C13.0817 6.97196 13.4789 6.76567 13.5326 6.42696C13.5812 6.12327 13.335 5.79988 13.0035 5.79276C12.9986 5.79276 12.9936 5.79276 12.9887 5.79276ZM16.272 1.41469C15.912 1.41798 15.6144 1.84479 15.7807 2.19553C15.8989 2.44505 16.2244 2.57419 16.4821 2.46913C16.7661 2.35258 16.9083 1.97228 16.754 1.69595C16.661 1.53015 16.4799 1.41907 16.2862 1.41469C16.2813 1.41469 16.2769 1.41469 16.272 1.41469Z" fill="#3C3C3B" stroke="#3C3C3B" stroke-width="0.5"/>
</svg>
