<svg width="29" height="29" viewBox="0 0 29 29" fill="none" xmlns="http://www.w3.org/2000/svg">
<path d="M14.2789 0.871094C6.62156 0.871094 0.390625 7.10651 0.390625 14.7694C0.390625 22.4323 6.62156 28.6381 14.2789 28.6381C21.9363 28.6381 28.1573 22.4323 28.1573 14.7694C28.1573 7.10651 21.9363 0.871094 14.2789 0.871094ZM14.2789 2.12381C21.2544 2.12381 26.8858 7.78886 26.8858 14.7694C26.8858 21.7499 21.2544 27.3854 14.2789 27.3854C7.30344 27.3854 1.66215 21.7499 1.66215 14.7694C1.66215 7.78886 7.30344 2.12381 14.2789 2.12381ZM14.2099 4.4517C14.0531 4.46895 13.9085 4.54434 13.8045 4.66302C13.7005 4.78169 13.6447 4.93505 13.648 5.09286V9.4034C13.6469 9.48706 13.6623 9.57011 13.6935 9.64774C13.7247 9.72537 13.7709 9.79602 13.8296 9.8556C13.8883 9.91517 13.9583 9.96248 14.0354 9.99477C14.1125 10.0271 14.1953 10.0437 14.2789 10.0437C14.3625 10.0437 14.4453 10.0271 14.5224 9.99477C14.5995 9.96248 14.6694 9.91517 14.7281 9.8556C14.7868 9.79602 14.8331 9.72537 14.8643 9.64774C14.8955 9.57011 14.9109 9.48706 14.9097 9.4034V5.09286C14.9117 5.00299 14.8944 4.91375 14.8591 4.83109C14.8238 4.74844 14.7712 4.67428 14.705 4.61359C14.6387 4.55289 14.5603 4.50705 14.4749 4.47913C14.3895 4.45121 14.2992 4.44186 14.2099 4.4517ZM16.3587 6.75987C16.2049 6.77224 16.061 6.84059 15.9541 6.95198C15.8473 7.06336 15.7849 7.21007 15.7788 7.36435C15.7728 7.51864 15.8234 7.6698 15.9212 7.78924C16.0189 7.90869 16.157 7.98815 16.3094 8.01259C19.207 8.88408 21.3167 11.5682 21.3167 14.7595C21.3167 18.6587 18.1752 21.8024 14.2789 21.8024C10.3825 21.8024 7.24112 18.6587 7.24112 14.7595C7.24112 11.5682 9.35075 8.88408 12.2484 8.01259C12.4017 7.96886 12.5327 7.86868 12.6152 7.73219C12.6977 7.5957 12.7256 7.43302 12.6931 7.27685C12.6606 7.12068 12.5703 6.98259 12.4403 6.89034C12.3102 6.7981 12.1501 6.75853 11.9921 6.7796C11.9585 6.78676 11.9255 6.79665 11.8935 6.80919C8.47341 7.83782 5.97944 11.0095 5.97944 14.7595C5.97944 19.3404 9.7013 23.065 14.2789 23.065C18.8565 23.065 22.5783 19.3404 22.5783 14.7595C22.5783 11.0095 20.0844 7.83782 16.6642 6.80919C16.5681 6.76761 16.463 6.75066 16.3587 6.75987Z" fill="#3C3C3B" stroke="#3C3C3B" stroke-width="0.5"/>
</svg>
