<svg width="40" height="24" viewBox="0 0 40 24" fill="none" xmlns="http://www.w3.org/2000/svg">
<path d="M15.9114 12.7871C15.9114 12.4267 16.2002 12.1354 16.556 12.1354H28.1585C28.5149 12.1354 28.8031 12.4267 28.8031 12.7871C28.8031 13.1475 28.5149 13.4388 28.1585 13.4388H16.556C16.2002 13.4388 15.9114 13.1475 15.9114 12.7871ZM16.556 5.61867H28.1585C28.5149 5.61867 28.8031 5.32737 28.8031 4.967C28.8031 4.60662 28.5149 4.31532 28.1585 4.31532H16.556C16.2002 4.31532 15.9114 4.60662 15.9114 4.967C15.9114 5.32737 16.2002 5.61867 16.556 5.61867ZM16.556 10.8321H28.1585C28.5149 10.8321 28.8031 10.5408 28.8031 10.1804C28.8031 9.82002 28.5149 9.52872 28.1585 9.52872H16.556C16.2002 9.52872 15.9114 9.82002 15.9114 10.1804C15.9114 10.5408 16.2002 10.8321 16.556 10.8321ZM16.556 8.22537H28.1585C28.5149 8.22537 28.8031 7.93407 28.8031 7.5737C28.8031 7.21332 28.5149 6.92202 28.1585 6.92202H16.556C16.2002 6.92202 15.9114 7.21332 15.9114 7.5737C15.9114 7.93407 16.2002 8.22537 16.556 8.22537ZM39.1164 4.31532V16.0455C39.1164 17.4792 37.9562 18.6522 36.5381 18.6522H32.026H28.1585L28.8031 19.9555H30.0922V23.2139H14.6222V19.9555H15.9114L16.556 18.6522H13.9777C13.9777 19.369 13.3975 19.9555 12.6885 19.9555H12.0439C11.3349 19.9555 10.7547 19.369 10.7547 18.6522H8.82099L6.24266 17.3488V13.4388H3.66432V12.1354H0.441406V8.22537H3.66432V6.92202H6.24266V3.01197L8.82099 1.70862H10.7547C10.7547 0.991781 11.3349 0.405273 12.0439 0.405273H12.6885C13.3975 0.405273 13.9777 0.991781 13.9777 1.70862H32.026H36.5381C37.9562 1.70862 39.1164 2.88164 39.1164 4.31532ZM3.66432 9.52872H1.73057V10.8321H3.66432V9.52872ZM6.24266 8.22537H4.95349V12.1354H6.24266V8.22537ZM10.7547 3.01197H9.12523L7.53182 3.81744V6.92202V13.4388V16.5434L8.82099 17.195V11.4837C8.82099 11.3039 8.96538 11.1579 9.14328 11.1579C9.32119 11.1579 9.46557 11.3039 9.46557 11.4837V17.3488H10.7547V3.01197ZM12.6885 1.70862H12.0439V18.6522H12.6885V1.70862ZM27.8362 21.2589L26.8693 18.6522V16.0455H17.8452V18.6522L16.8783 21.2589H15.9114V21.9105H28.8031V21.2589H27.8362ZM30.7368 3.01197H13.9777V17.3488H16.556V16.0455V14.7421H17.8452H26.8693H28.1585V16.0455V17.3488H30.7368V3.01197ZM37.8272 4.31532C37.8272 3.59653 37.2491 3.01197 36.5381 3.01197H32.026V17.3488H35.8935V12.7871C35.8935 12.6072 36.0379 12.4613 36.2158 12.4613C36.3937 12.4613 36.5381 12.6072 36.5381 12.7871V17.3488C37.2491 17.3488 37.8272 16.7643 37.8272 16.0455V4.31532ZM36.2158 9.20289C36.0379 9.20289 35.8935 9.34886 35.8935 9.52872V10.8321C35.8935 11.0119 36.0379 11.1579 36.2158 11.1579C36.3937 11.1579 36.5381 11.0119 36.5381 10.8321V9.52872C36.5381 9.34886 36.3937 9.20289 36.2158 9.20289Z" fill="#3C3C3B" stroke="#3C3C3B" stroke-width="0.3"/>
</svg>
