<svg width="44" height="44" viewBox="0 0 44 44" fill="none" xmlns="http://www.w3.org/2000/svg">
<path d="M5.46413 26.848L5.4642 16.8149L38.8835 16.815L38.8835 26.8481L5.46413 26.848ZM6.42249 17.7751L6.42248 25.8877L37.9252 25.8879L37.9252 17.7752L6.42249 17.7751Z" fill="#3C3C3B" stroke="#3C3C3B" stroke-width="0.7"/>
<path d="M10.087 17.297L9.12915 17.293L9.12899 22.3738L10.0868 22.3779L10.087 17.297Z" fill="#3C3C3B" stroke="#3C3C3B" stroke-width="0.7"/>
<path d="M14.2755 17.297L13.3176 17.293L13.3175 22.3738L14.2753 22.3779L14.2755 17.297Z" fill="#3C3C3B" stroke="#3C3C3B" stroke-width="0.7"/>
<path d="M18.4645 17.2977L17.5066 17.2937L17.5064 22.3745L18.4643 22.3785L18.4645 17.2977Z" fill="#3C3C3B" stroke="#3C3C3B" stroke-width="0.7"/>
<path d="M22.6524 17.297L21.6946 17.293L21.6944 22.3738L22.6523 22.3779L22.6524 17.297Z" fill="#3C3C3B" stroke="#3C3C3B" stroke-width="0.7"/>
<path d="M26.841 17.2982L25.8832 17.2942L25.883 22.375L26.8409 22.3791L26.841 17.2982Z" fill="#3C3C3B" stroke="#3C3C3B" stroke-width="0.7"/>
<path d="M31.0295 17.2977L30.0717 17.2937L30.0715 22.3745L31.0293 22.3786L31.0295 17.2977Z" fill="#3C3C3B" stroke="#3C3C3B" stroke-width="0.7"/>
<path d="M35.2182 17.298L34.2604 17.2939L34.2602 22.3748L35.2181 22.3788L35.2182 17.298Z" fill="#3C3C3B" stroke="#3C3C3B" stroke-width="0.7"/>
</svg>
