<svg width="36" height="35" viewBox="0 0 36 35" fill="none" xmlns="http://www.w3.org/2000/svg">
<path d="M18.0336 28.1245C17.5889 28.1245 17.1543 28.2564 16.7846 28.5034C16.4148 28.7505 16.1267 29.1016 15.9565 29.5124C15.7864 29.9233 15.7419 30.3753 15.8286 30.8115C15.9153 31.2476 16.1295 31.6482 16.4439 31.9626C16.7583 32.2771 17.1589 32.4912 17.595 32.578C18.0311 32.6647 18.4831 32.6202 18.8939 32.45C19.3047 32.2798 19.6558 31.9917 19.9029 31.6219C20.1499 31.2522 20.2818 30.8175 20.2818 30.3728C20.2818 29.7765 20.0449 29.2047 19.6233 28.783C19.2017 28.3614 18.6298 28.1245 18.0336 28.1245ZM18.0336 31.497C17.8113 31.497 17.5939 31.4311 17.4091 31.3075C17.2242 31.184 17.0801 31.0084 16.9951 30.803C16.91 30.5976 16.8877 30.3716 16.9311 30.1535C16.9745 29.9355 17.0815 29.7351 17.2387 29.5779C17.3959 29.4207 17.5962 29.3136 17.8143 29.2703C18.0323 29.2269 18.2584 29.2492 18.4638 29.3342C18.6692 29.4193 18.8447 29.5634 18.9682 29.7483C19.0917 29.9331 19.1577 30.1505 19.1577 30.3728C19.1577 30.671 19.0392 30.9569 18.8284 31.1677C18.6176 31.3786 18.3317 31.497 18.0336 31.497Z" fill="#3C3C3B" stroke="#3C3C3B" stroke-width="0.4"/>
<path d="M29.273 20.8193C29.94 20.8193 30.592 20.6215 31.1465 20.2509C31.7011 19.8803 32.1333 19.3536 32.3886 18.7374C32.6438 18.1211 32.7106 17.443 32.5805 16.7888C32.4504 16.1346 32.1292 15.5337 31.6576 15.062C31.1859 14.5904 30.5851 14.2692 29.9309 14.139C29.2768 14.0089 28.5987 14.0757 27.9825 14.3309C27.3663 14.5862 26.8396 15.0185 26.4691 15.5731C26.0985 16.1277 25.9008 16.7797 25.9008 17.4467C25.9016 18.3409 26.2572 19.1982 26.8895 19.8305C27.5217 20.4628 28.3789 20.8184 29.273 20.8193ZM29.273 15.1984C29.7177 15.1984 30.1523 15.3303 30.522 15.5773C30.8917 15.8244 31.1799 16.1755 31.3501 16.5863C31.5202 16.9972 31.5647 17.4492 31.478 17.8854C31.3912 18.3215 31.1771 18.7221 30.8627 19.0366C30.5483 19.351 30.1477 19.5651 29.7116 19.6519C29.2755 19.7387 28.8235 19.6941 28.4127 19.524C28.0019 19.3538 27.6508 19.0656 27.4037 18.6959C27.1567 18.3261 27.0248 17.8914 27.0248 17.4467C27.0248 16.8504 27.2617 16.2786 27.6833 15.8569C28.1049 15.4353 28.6768 15.1984 29.273 15.1984Z" fill="#3C3C3B" stroke="#3C3C3B" stroke-width="0.4"/>
<path d="M34.8924 17.4463C34.8908 15.9563 34.2982 14.5277 33.2447 13.4741C32.1911 12.4205 30.7627 11.8278 29.2727 11.8262C29.1665 11.8262 29.0637 11.8363 28.9592 11.8419L18.2019 5.56709C17.5275 4.21394 16.5226 3.05285 15.2803 2.19133C14.0379 1.32981 12.5983 0.79573 11.0947 0.638541C9.59109 0.481352 8.07212 0.706139 6.67847 1.29209C5.28482 1.87803 4.06155 2.80619 3.12193 3.99061C2.18231 5.17504 1.55672 6.57742 1.30311 8.0679C1.0495 9.55838 1.17605 11.0888 1.67106 12.5173C2.16607 13.9459 3.01352 15.2265 4.13494 16.2404C5.25635 17.2544 6.61548 17.9689 8.08644 18.318L14.2445 29.3294C14.0972 29.8622 14.0639 30.4201 14.1469 30.9666C14.2299 31.5131 14.4272 32.036 14.7259 32.5011C15.0247 32.9662 15.4182 33.363 15.8808 33.6656C16.3433 33.9683 16.8645 34.1699 17.4103 34.2574C17.9561 34.3449 18.5141 34.3163 19.0481 34.1734C19.5821 34.0305 20.0799 33.7765 20.509 33.4281C20.9382 33.0798 21.289 32.6447 21.5386 32.1515C21.7882 31.6583 21.931 31.118 21.9576 30.5658L29.8252 23.0383C31.2125 22.8997 32.4989 22.251 33.4352 21.2178C34.3714 20.1846 34.8907 18.8406 34.8924 17.4463ZM16.7178 26.6694L12.1006 18.3551C14.024 17.9275 15.7538 16.8804 17.0245 15.3745C18.2953 13.8687 19.0366 11.9873 19.1348 10.0193L25.2164 13.5684C24.6581 14.1491 24.2316 14.8434 23.966 15.604C23.7005 16.3645 23.6022 17.1735 23.6778 17.9755C23.7535 18.7775 24.0013 19.5538 24.4044 20.2513C24.8074 20.9488 25.3562 21.5511 26.0133 22.0171L20.4858 27.3034C19.9648 26.8827 19.3443 26.6034 18.684 26.4924C18.0237 26.3813 17.3459 26.4423 16.7161 26.6694H16.7178ZM27.0338 22.5982C27.4301 22.77 27.845 22.8953 28.2702 22.9714L21.7811 29.1794C21.6599 28.8035 21.483 28.4479 21.2562 28.1245L27.0338 22.5982ZM33.7685 17.4463C33.7685 18.3355 33.5048 19.2048 33.0108 19.9442C32.5168 20.6836 31.8147 21.2598 30.9932 21.6001C30.1717 21.9404 29.2678 22.0295 28.3957 21.856C27.5236 21.6825 26.7225 21.2543 26.0938 20.6255C25.465 19.9967 25.0368 19.1956 24.8634 18.3234C24.6899 17.4513 24.7789 16.5473 25.1192 15.7257C25.4595 14.9042 26.0357 14.202 26.775 13.7079C27.5144 13.2139 28.3836 12.9502 29.2727 12.9502C30.4647 12.9516 31.6074 13.4257 32.4502 14.2686C33.2931 15.1115 33.7672 16.2543 33.7685 17.4463ZM27.3148 12.1853C26.8944 12.3403 26.4941 12.545 26.1223 12.7951L19.1129 8.70592C19.0627 8.21047 18.9708 7.72015 18.8381 7.2402L27.3148 12.1853ZM2.29815 9.57816C2.29815 8.02199 2.75957 6.50076 3.62407 5.20685C4.48858 3.91295 5.71733 2.90447 7.15494 2.30895C8.59255 1.71343 10.1745 1.55761 11.7006 1.8612C13.2268 2.1648 14.6287 2.91417 15.729 4.01454C16.8293 5.11492 17.5786 6.51689 17.8822 8.04316C18.1857 9.56943 18.0299 11.1514 17.4344 12.5892C16.839 14.0269 15.8306 15.2557 14.5367 16.1203C13.2429 16.9848 11.7218 17.4463 10.1657 17.4463C8.07981 17.4441 6.07995 16.6144 4.60497 15.1393C3.13 13.6642 2.30038 11.6642 2.29815 9.57816ZM9.49755 18.5366C9.71897 18.5529 9.94039 18.5703 10.1657 18.5703C10.4181 18.5703 10.6665 18.5529 10.9137 18.5327L15.7242 27.1949C15.3829 27.443 15.0837 27.7443 14.838 28.0874L9.49755 18.5366ZM18.0333 33.1826C17.4776 33.1826 16.9343 33.0178 16.4723 32.709C16.0102 32.4002 15.65 31.9613 15.4374 31.4479C15.2247 30.9344 15.169 30.3694 15.2775 29.8243C15.3859 29.2792 15.6535 28.7785 16.0465 28.3855C16.4394 27.9925 16.9401 27.7249 17.4851 27.6165C18.0302 27.508 18.5952 27.5637 19.1086 27.7764C19.622 27.9891 20.0609 28.3492 20.3696 28.8113C20.6784 29.2734 20.8432 29.8167 20.8432 30.3725C20.8423 31.1175 20.546 31.8317 20.0192 32.3585C19.4925 32.8853 18.7783 33.1817 18.0333 33.1826Z" fill="#3C3C3B" stroke="#3C3C3B" stroke-width="0.4"/>
<path d="M16.9095 9.57834C16.9095 8.24448 16.514 6.94058 15.773 5.83151C15.032 4.72245 13.9788 3.85804 12.7466 3.3476C11.5143 2.83715 10.1584 2.70359 8.85027 2.96382C7.54213 3.22404 6.34053 3.86635 5.39741 4.80954C4.4543 5.75272 3.81203 6.9544 3.55182 8.26263C3.29162 9.57086 3.42516 10.9269 3.93557 12.1592C4.44598 13.3915 5.31033 14.4448 6.41932 15.1859C7.52831 15.9269 8.83212 16.3224 10.1659 16.3224C11.9538 16.3205 13.668 15.6094 14.9322 14.345C16.1965 13.0807 16.9076 11.3664 16.9095 9.57834ZM4.54618 9.57834C4.54618 8.46679 4.87577 7.3802 5.49328 6.45599C6.11078 5.53177 6.98845 4.81142 8.01532 4.38605C9.04219 3.96068 10.1721 3.84939 11.2622 4.06624C12.3524 4.28309 13.3537 4.81835 14.1396 5.60434C14.9255 6.39032 15.4608 7.39172 15.6776 8.48191C15.8944 9.57211 15.7832 10.7021 15.3578 11.7291C14.9325 12.756 14.2122 13.6337 13.288 14.2513C12.3639 14.8688 11.2774 15.1984 10.1659 15.1984C8.67595 15.1968 7.24751 14.6042 6.19396 13.5505C5.14042 12.4969 4.54782 11.0684 4.54618 9.57834Z" fill="#3C3C3B" stroke="#3C3C3B" stroke-width="0.4"/>
<path d="M11.853 9.57858C11.853 9.24503 11.7541 8.91896 11.5688 8.64162C11.3835 8.36428 11.1202 8.14811 10.8121 8.02047C10.504 7.89282 10.165 7.85942 9.8379 7.9245C9.51082 7.98957 9.21038 8.15019 8.97457 8.38605C8.73876 8.62191 8.57817 8.92242 8.51311 9.24956C8.44805 9.57671 8.48144 9.91581 8.60906 10.224C8.73668 10.5321 8.9528 10.7955 9.23008 10.9809C9.50737 11.1662 9.83336 11.2651 10.1668 11.2651C10.614 11.2651 11.0429 11.0874 11.3591 10.7711C11.6753 10.4548 11.853 10.0259 11.853 9.57858ZM10.1668 10.1407C10.0557 10.1407 9.94702 10.1078 9.85459 10.046C9.76216 9.98423 9.69013 9.89644 9.64759 9.79371C9.60505 9.69099 9.59392 9.57796 9.6156 9.46891C9.63729 9.35986 9.69082 9.25969 9.76942 9.18107C9.84803 9.10245 9.94817 9.04891 10.0572 9.02722C10.1662 9.00553 10.2792 9.01666 10.3819 9.05921C10.4846 9.10176 10.5724 9.17381 10.6342 9.26626C10.6959 9.35871 10.7289 9.4674 10.7289 9.57858C10.7289 9.72768 10.6697 9.87067 10.5643 9.97609C10.4589 10.0815 10.3159 10.1407 10.1668 10.1407Z" fill="#3C3C3B" stroke="#3C3C3B" stroke-width="0.4"/>
<path d="M11.853 6.20703C11.853 5.87347 11.7541 5.5474 11.5688 5.27005C11.3835 4.9927 11.1202 4.77654 10.8121 4.64889C10.504 4.52124 10.165 4.48784 9.8379 4.55291C9.51082 4.61799 9.21038 4.77862 8.97457 5.01448C8.73876 5.25034 8.57817 5.55085 8.51311 5.87801C8.44805 6.20516 8.48144 6.54426 8.60906 6.85244C8.73668 7.16061 8.9528 7.42401 9.23008 7.60932C9.50737 7.79464 9.83336 7.89355 10.1668 7.89355C10.614 7.89355 11.0429 7.71587 11.3591 7.39958C11.6753 7.0833 11.853 6.65433 11.853 6.20703ZM10.1668 6.76921C10.0557 6.76921 9.94702 6.73624 9.85459 6.67446C9.76216 6.61269 9.69013 6.52489 9.64759 6.42217C9.60505 6.31944 9.59392 6.20641 9.6156 6.09736C9.63729 5.98831 9.69082 5.88814 9.76942 5.80951C9.84803 5.73089 9.94817 5.67735 10.0572 5.65566C10.1662 5.63397 10.2792 5.6451 10.3819 5.68765C10.4846 5.7302 10.5724 5.80226 10.6342 5.8947C10.6959 5.98715 10.7289 6.09584 10.7289 6.20703C10.7289 6.35613 10.6697 6.49912 10.5643 6.60455C10.4589 6.70998 10.3159 6.76921 10.1668 6.76921Z" fill="#3C3C3B" stroke="#3C3C3B" stroke-width="0.4"/>
<path d="M6.79466 7.89209C6.46117 7.89209 6.13517 7.991 5.85789 8.17632C5.58061 8.36163 5.36449 8.62502 5.23687 8.93319C5.10925 9.24136 5.07586 9.58045 5.14092 9.9076C5.20598 10.2347 5.36657 10.5353 5.60238 10.7711C5.83819 11.007 6.13863 11.1676 6.46571 11.2327C6.79278 11.2977 7.13181 11.2643 7.43991 11.1367C7.74801 11.0091 8.01135 10.7929 8.19662 10.5155C8.3819 10.2382 8.48079 9.91214 8.48079 9.57858C8.48079 9.1313 8.30314 8.70233 7.98693 8.38605C7.67072 8.06977 7.24185 7.89209 6.79466 7.89209ZM6.79466 10.1407C6.68349 10.1407 6.57483 10.1078 6.4824 10.046C6.38997 9.98423 6.31793 9.89644 6.27539 9.79371C6.23285 9.69099 6.22172 9.57796 6.24341 9.46891C6.2651 9.35986 6.31863 9.25969 6.39723 9.18107C6.47583 9.10245 6.57598 9.04891 6.68501 9.02722C6.79403 9.00553 6.90704 9.01666 7.00974 9.05921C7.11244 9.10176 7.20022 9.17381 7.26198 9.26626C7.32374 9.35871 7.3567 9.4674 7.3567 9.57858C7.3567 9.72768 7.29748 9.87067 7.19208 9.97609C7.08668 10.0815 6.94372 10.1407 6.79466 10.1407Z" fill="#3C3C3B" stroke="#3C3C3B" stroke-width="0.4"/>
<path d="M11.852 12.9507C11.852 12.6171 11.7531 12.291 11.5678 12.0137C11.3826 11.7363 11.1192 11.5202 10.8111 11.3925C10.503 11.2649 10.164 11.2315 9.83692 11.2966C9.50984 11.3616 9.2094 11.5223 8.97359 11.7581C8.73778 11.994 8.5772 12.2945 8.51214 12.6216C8.44708 12.9488 8.48047 13.2879 8.60809 13.596C8.73571 13.9042 8.95182 14.1676 9.2291 14.3529C9.50639 14.5382 9.83238 14.6371 10.1659 14.6371C10.6131 14.6371 11.0419 14.4595 11.3581 14.1432C11.6744 13.8269 11.852 13.3979 11.852 12.9507ZM9.60382 12.9507C9.60382 12.8395 9.63679 12.7308 9.69854 12.6383C9.7603 12.5459 9.84808 12.4738 9.95078 12.4313C10.0535 12.3887 10.1665 12.3776 10.2755 12.3993C10.3845 12.421 10.4847 12.4745 10.5633 12.5531C10.6419 12.6318 10.6954 12.7319 10.7171 12.841C10.7388 12.95 10.7277 13.0631 10.6851 13.1658C10.6426 13.2685 10.5705 13.3563 10.4781 13.4181C10.3857 13.4798 10.277 13.5128 10.1659 13.5128C10.0168 13.5128 9.87385 13.4536 9.76844 13.3482C9.66304 13.2427 9.60382 13.0997 9.60382 12.9507Z" fill="#3C3C3B" stroke="#3C3C3B" stroke-width="0.4"/>
<path d="M13.5378 11.2641C13.8713 11.2641 14.1973 11.1652 14.4746 10.9799C14.7519 10.7946 14.968 10.5312 15.0956 10.223C15.2232 9.91483 15.2566 9.57574 15.1915 9.24859C15.1265 8.92144 14.9659 8.62094 14.7301 8.38508C14.4943 8.14922 14.1938 7.98859 13.8668 7.92352C13.5397 7.85845 13.2007 7.89184 12.8926 8.01949C12.5845 8.14714 12.3211 8.3633 12.1358 8.64064C11.9506 8.91798 11.8517 9.24405 11.8517 9.57761C11.8517 10.0249 12.0293 10.4539 12.3455 10.7701C12.6618 11.0864 13.0906 11.2641 13.5378 11.2641ZM13.5378 9.01544C13.649 9.01544 13.7576 9.04841 13.8501 9.11018C13.9425 9.17196 14.0145 9.25975 14.0571 9.36248C14.0996 9.4652 14.1107 9.57823 14.0891 9.68728C14.0674 9.79633 14.0138 9.8965 13.9352 9.97512C13.8566 10.0537 13.7565 10.1073 13.6475 10.129C13.5384 10.1507 13.4254 10.1395 13.3227 10.097C13.22 10.0544 13.1323 9.98238 13.0705 9.88993C13.0087 9.79748 12.9758 9.68879 12.9758 9.57761C12.9758 9.42851 13.035 9.28552 13.1404 9.1801C13.2458 9.07467 13.3888 9.01544 13.5378 9.01544Z" fill="#3C3C3B" stroke="#3C3C3B" stroke-width="0.4"/>
<path d="M20.8435 6.20734H21.9676C21.9667 5.46213 21.6703 4.74769 21.1435 4.22075C20.6167 3.69381 19.9024 3.39738 19.1573 3.39648V4.52083C19.6045 4.52083 20.0334 4.69851 20.3496 5.01479C20.6658 5.33107 20.8435 5.76005 20.8435 6.20734Z" fill="#3C3C3B" stroke="#3C3C3B" stroke-width="0.4"/>
<path d="M23.0917 6.20795H24.2157C24.2142 4.86673 23.6808 3.58088 22.7325 2.63249C21.7842 1.68411 20.4985 1.15066 19.1573 1.14917V2.27334C20.2004 2.27468 21.2003 2.68965 21.9378 3.42724C22.6754 4.16483 23.0903 5.16484 23.0917 6.20795Z" fill="#3C3C3B" stroke="#3C3C3B" stroke-width="0.4"/>
<path d="M6.23212 18.5703H5.10803C5.10892 19.3155 5.40529 20.0299 5.93211 20.5569C6.45894 21.0838 7.17321 21.3802 7.91825 21.3811V20.2568C7.47106 20.2568 7.04219 20.0791 6.72598 19.7628C6.40977 19.4466 6.23212 19.0176 6.23212 18.5703Z" fill="#3C3C3B" stroke="#3C3C3B" stroke-width="0.4"/>
<path d="M3.98407 18.5703H2.85999C2.86147 19.9115 3.39489 21.1974 4.3432 22.1458C5.29151 23.0941 6.57727 23.6276 7.91838 23.6291V22.5049C6.87535 22.5036 5.87542 22.0886 5.13788 21.351C4.40035 20.6134 3.98541 19.6134 3.98407 18.5703Z" fill="#3C3C3B" stroke="#3C3C3B" stroke-width="0.4"/>
</svg>
