<svg width="23" height="22" viewBox="0 0 23 22" fill="none" xmlns="http://www.w3.org/2000/svg">
<path d="M9.14053 21.4C9.6959 21.4 10.2388 21.2353 10.7006 20.9267C11.1624 20.6182 11.5223 20.1796 11.7348 19.6665C11.9473 19.1534 12.0029 18.5888 11.8946 18.0441C11.7862 17.4994 11.5188 16.9991 11.1261 16.6064C10.7334 16.2137 10.233 15.9462 9.68835 15.8379C9.14365 15.7295 8.57905 15.7852 8.06595 15.9977C7.55286 16.2102 7.1143 16.5701 6.80576 17.0319C6.49721 17.4937 6.33252 18.0366 6.33252 18.5919C6.33386 19.3363 6.63013 20.0497 7.15644 20.576C7.68276 21.1024 8.39621 21.3986 9.14053 21.4ZM9.14053 17.8052C9.29564 17.8052 9.44726 17.8512 9.57622 17.9374C9.70519 18.0235 9.8057 18.146 9.86506 18.2893C9.92441 18.4326 9.93994 18.5903 9.90968 18.7424C9.87942 18.8945 9.80473 19.0343 9.69506 19.1439C9.58538 19.2536 9.44565 19.3283 9.29353 19.3586C9.1414 19.3888 8.98372 19.3733 8.84042 19.3139C8.69713 19.2546 8.57465 19.1541 8.48848 19.0251C8.40231 18.8961 8.35631 18.7445 8.35631 18.5894C8.35698 18.3816 8.43982 18.1826 8.58674 18.0356C8.73367 17.8887 8.93275 17.8059 9.14053 17.8052Z" fill="white"/>
<path d="M21.1114 18.5919C21.1114 18.0366 20.9467 17.4937 20.6382 17.0319C20.3296 16.5701 19.8911 16.2102 19.378 15.9977C18.8649 15.7852 18.3003 15.7295 17.7556 15.8379C17.2109 15.9462 16.7105 16.2137 16.3178 16.6064C15.9251 16.9991 15.6577 17.4994 15.5493 18.0441C15.441 18.5888 15.4966 19.1534 15.7091 19.6665C15.9216 20.1796 16.2816 20.6182 16.7433 20.9267C17.2051 21.2353 17.748 21.4 18.3034 21.4C19.0477 21.3986 19.7611 21.1024 20.2875 20.576C20.8138 20.0497 21.1101 19.3363 21.1114 18.5919ZM17.5166 18.5919C17.5166 18.4368 17.5626 18.2852 17.6488 18.1563C17.735 18.0273 17.8574 17.9268 18.0007 17.8674C18.144 17.8081 18.3017 17.7925 18.4538 17.8228C18.606 17.8531 18.7457 17.9277 18.8554 18.0374C18.965 18.1471 19.0397 18.2868 19.07 18.439C19.1003 18.5911 19.0847 18.7488 19.0254 18.8921C18.966 19.0354 18.8655 19.1578 18.7365 19.244C18.6076 19.3302 18.4559 19.3762 18.3008 19.3762C18.0948 19.3729 17.8983 19.2889 17.7536 19.1422C17.6088 18.9956 17.5274 18.798 17.5267 18.5919H17.5166Z" fill="white"/>
<path d="M5.44563 0H0.988281V2.36464H3.54505L6.33237 15.1101H21.6198L22.3174 4.89777H6.52155L5.44563 0ZM19.7872 7.26241L19.4118 12.7454H8.24478L7.03881 7.26241H19.7872Z" fill="white"/>
</svg>
