<svg width="20" height="22" viewBox="0 0 20 22" fill="none" xmlns="http://www.w3.org/2000/svg">
<path d="M10.1672 11.0625C11.1623 11.0625 12.1351 10.7674 12.9624 10.2146C13.7898 9.66174 14.4347 8.87597 14.8155 7.95663C15.1963 7.03729 15.2959 6.02567 15.1018 5.0497C14.9077 4.07374 14.4285 3.17725 13.7249 2.47362C13.0212 1.76999 12.1248 1.29081 11.1488 1.09668C10.1728 0.902544 9.1612 1.00218 8.24186 1.38298C7.32252 1.76379 6.53675 2.40865 5.9839 3.23604C5.43106 4.06342 5.13599 5.03616 5.13599 6.03125C5.13754 7.36515 5.66811 8.64396 6.61132 9.58717C7.55452 10.5304 8.83334 11.061 10.1672 11.0625ZM10.1672 3.09375C10.7481 3.09375 11.316 3.26601 11.799 3.58874C12.282 3.91148 12.6585 4.37019 12.8808 4.90688C13.1031 5.44356 13.1612 6.03412 13.0479 6.60386C12.9346 7.17361 12.6548 7.69695 12.2441 8.10771C11.8333 8.51847 11.31 8.79821 10.7402 8.91153C10.1705 9.02486 9.57994 8.9667 9.04325 8.7444C8.50657 8.52209 8.04785 8.14564 7.72512 7.66263C7.40239 7.17963 7.23013 6.61177 7.23013 6.03086C7.23106 5.25221 7.54081 4.50573 8.09144 3.95518C8.64206 3.40463 9.38859 3.09497 10.1672 3.09414V3.09375Z" fill="white" stroke="white" stroke-width="0.6"/>
<path d="M3.09456 21C3.09456 17.1 6.26722 13.9273 10.1672 13.9273C14.0672 13.9273 17.2399 17.1 17.2399 21H19.334C19.3339 19.187 18.7962 17.4148 17.7889 15.9074C16.7816 14.4 15.35 13.2251 13.675 12.5313C12 11.8375 10.1569 11.656 8.37879 12.0096C6.60064 12.3632 4.96726 13.2361 3.68519 14.518C2.83125 15.3672 2.15424 16.3774 1.69333 17.49C1.23242 18.6027 0.996776 19.7957 1.00003 21H3.09456Z" fill="white" stroke="white" stroke-width="0.6"/>
</svg>
