<svg width="66" height="3" viewBox="0 0 66 3" fill="none" xmlns="http://www.w3.org/2000/svg">
<path d="M0.984375 1.33691C0.984375 1.11816 1.04818 0.935872 1.17578 0.790039C1.30794 0.644206 1.50391 0.571289 1.76367 0.571289C2.02344 0.571289 2.2194 0.644206 2.35156 0.790039C2.48828 0.935872 2.55664 1.11816 2.55664 1.33691C2.55664 1.54655 2.48828 1.72201 2.35156 1.86328C2.2194 2.00456 2.02344 2.0752 1.76367 2.0752C1.50391 2.0752 1.30794 2.00456 1.17578 1.86328C1.04818 1.72201 0.984375 1.54655 0.984375 1.33691ZM5.16578 1.33691C5.16578 1.11816 5.22958 0.935872 5.35719 0.790039C5.48935 0.644206 5.68531 0.571289 5.94508 0.571289C6.20484 0.571289 6.40081 0.644206 6.53297 0.790039C6.66969 0.935872 6.73805 1.11816 6.73805 1.33691C6.73805 1.54655 6.66969 1.72201 6.53297 1.86328C6.40081 2.00456 6.20484 2.0752 5.94508 2.0752C5.68531 2.0752 5.48935 2.00456 5.35719 1.86328C5.22958 1.72201 5.16578 1.54655 5.16578 1.33691ZM9.34719 1.33691C9.34719 1.11816 9.41099 0.935872 9.53859 0.790039C9.67075 0.644206 9.86672 0.571289 10.1265 0.571289C10.3862 0.571289 10.5822 0.644206 10.7144 0.790039C10.8511 0.935872 10.9195 1.11816 10.9195 1.33691C10.9195 1.54655 10.8511 1.72201 10.7144 1.86328C10.5822 2.00456 10.3862 2.0752 10.1265 2.0752C9.86672 2.0752 9.67075 2.00456 9.53859 1.86328C9.41099 1.72201 9.34719 1.54655 9.34719 1.33691ZM13.5286 1.33691C13.5286 1.11816 13.5924 0.935872 13.72 0.790039C13.8522 0.644206 14.0481 0.571289 14.3079 0.571289C14.5677 0.571289 14.7636 0.644206 14.8958 0.790039C15.0325 0.935872 15.1009 1.11816 15.1009 1.33691C15.1009 1.54655 15.0325 1.72201 14.8958 1.86328C14.7636 2.00456 14.5677 2.0752 14.3079 2.0752C14.0481 2.0752 13.8522 2.00456 13.72 1.86328C13.5924 1.72201 13.5286 1.54655 13.5286 1.33691ZM17.71 1.33691C17.71 1.11816 17.7738 0.935872 17.9014 0.790039C18.0336 0.644206 18.2295 0.571289 18.4893 0.571289C18.7491 0.571289 18.945 0.644206 19.0772 0.790039C19.2139 0.935872 19.2823 1.11816 19.2823 1.33691C19.2823 1.54655 19.2139 1.72201 19.0772 1.86328C18.945 2.00456 18.7491 2.0752 18.4893 2.0752C18.2295 2.0752 18.0336 2.00456 17.9014 1.86328C17.7738 1.72201 17.71 1.54655 17.71 1.33691ZM21.8914 1.33691C21.8914 1.11816 21.9552 0.935872 22.0828 0.790039C22.215 0.644206 22.4109 0.571289 22.6707 0.571289C22.9305 0.571289 23.1264 0.644206 23.2586 0.790039C23.3953 0.935872 23.4637 1.11816 23.4637 1.33691C23.4637 1.54655 23.3953 1.72201 23.2586 1.86328C23.1264 2.00456 22.9305 2.0752 22.6707 2.0752C22.4109 2.0752 22.215 2.00456 22.0828 1.86328C21.9552 1.72201 21.8914 1.54655 21.8914 1.33691ZM26.0728 1.33691C26.0728 1.11816 26.1366 0.935872 26.2642 0.790039C26.3964 0.644206 26.5923 0.571289 26.8521 0.571289C27.1119 0.571289 27.3078 0.644206 27.44 0.790039C27.5767 0.935872 27.6451 1.11816 27.6451 1.33691C27.6451 1.54655 27.5767 1.72201 27.44 1.86328C27.3078 2.00456 27.1119 2.0752 26.8521 2.0752C26.5923 2.0752 26.3964 2.00456 26.2642 1.86328C26.1366 1.72201 26.0728 1.54655 26.0728 1.33691ZM30.2542 1.33691C30.2542 1.11816 30.318 0.935872 30.4456 0.790039C30.5778 0.644206 30.7738 0.571289 31.0335 0.571289C31.2933 0.571289 31.4892 0.644206 31.6214 0.790039C31.7581 0.935872 31.8265 1.11816 31.8265 1.33691C31.8265 1.54655 31.7581 1.72201 31.6214 1.86328C31.4892 2.00456 31.2933 2.0752 31.0335 2.0752C30.7738 2.0752 30.5778 2.00456 30.4456 1.86328C30.318 1.72201 30.2542 1.54655 30.2542 1.33691ZM34.4356 1.33691C34.4356 1.11816 34.4994 0.935872 34.627 0.790039C34.7592 0.644206 34.9552 0.571289 35.2149 0.571289C35.4747 0.571289 35.6706 0.644206 35.8028 0.790039C35.9395 0.935872 36.0079 1.11816 36.0079 1.33691C36.0079 1.54655 35.9395 1.72201 35.8028 1.86328C35.6706 2.00456 35.4747 2.0752 35.2149 2.0752C34.9552 2.0752 34.7592 2.00456 34.627 1.86328C34.4994 1.72201 34.4356 1.54655 34.4356 1.33691ZM38.617 1.33691C38.617 1.11816 38.6808 0.935872 38.8084 0.790039C38.9406 0.644206 39.1366 0.571289 39.3963 0.571289C39.6561 0.571289 39.8521 0.644206 39.9842 0.790039C40.1209 0.935872 40.1893 1.11816 40.1893 1.33691C40.1893 1.54655 40.1209 1.72201 39.9842 1.86328C39.8521 2.00456 39.6561 2.0752 39.3963 2.0752C39.1366 2.0752 38.9406 2.00456 38.8084 1.86328C38.6808 1.72201 38.617 1.54655 38.617 1.33691ZM42.7984 1.33691C42.7984 1.11816 42.8622 0.935872 42.9898 0.790039C43.122 0.644206 43.318 0.571289 43.5777 0.571289C43.8375 0.571289 44.0335 0.644206 44.1656 0.790039C44.3023 0.935872 44.3707 1.11816 44.3707 1.33691C44.3707 1.54655 44.3023 1.72201 44.1656 1.86328C44.0335 2.00456 43.8375 2.0752 43.5777 2.0752C43.318 2.0752 43.122 2.00456 42.9898 1.86328C42.8622 1.72201 42.7984 1.54655 42.7984 1.33691ZM46.9798 1.33691C46.9798 1.11816 47.0436 0.935872 47.1712 0.790039C47.3034 0.644206 47.4994 0.571289 47.7591 0.571289C48.0189 0.571289 48.2149 0.644206 48.347 0.790039C48.4837 0.935872 48.5521 1.11816 48.5521 1.33691C48.5521 1.54655 48.4837 1.72201 48.347 1.86328C48.2149 2.00456 48.0189 2.0752 47.7591 2.0752C47.4994 2.0752 47.3034 2.00456 47.1712 1.86328C47.0436 1.72201 46.9798 1.54655 46.9798 1.33691ZM51.1613 1.33691C51.1613 1.11816 51.2251 0.935872 51.3527 0.790039C51.4848 0.644206 51.6808 0.571289 51.9405 0.571289C52.2003 0.571289 52.3963 0.644206 52.5284 0.790039C52.6652 0.935872 52.7335 1.11816 52.7335 1.33691C52.7335 1.54655 52.6652 1.72201 52.5284 1.86328C52.3963 2.00456 52.2003 2.0752 51.9405 2.0752C51.6808 2.0752 51.4848 2.00456 51.3527 1.86328C51.2251 1.72201 51.1613 1.54655 51.1613 1.33691ZM55.3427 1.33691C55.3427 1.11816 55.4065 0.935872 55.5341 0.790039C55.6662 0.644206 55.8622 0.571289 56.122 0.571289C56.3817 0.571289 56.5777 0.644206 56.7098 0.790039C56.8466 0.935872 56.9149 1.11816 56.9149 1.33691C56.9149 1.54655 56.8466 1.72201 56.7098 1.86328C56.5777 2.00456 56.3817 2.0752 56.122 2.0752C55.8622 2.0752 55.6662 2.00456 55.5341 1.86328C55.4065 1.72201 55.3427 1.54655 55.3427 1.33691ZM59.5241 1.33691C59.5241 1.11816 59.5879 0.935872 59.7155 0.790039C59.8476 0.644206 60.0436 0.571289 60.3034 0.571289C60.5631 0.571289 60.7591 0.644206 60.8913 0.790039C61.028 0.935872 61.0963 1.11816 61.0963 1.33691C61.0963 1.54655 61.028 1.72201 60.8913 1.86328C60.7591 2.00456 60.5631 2.0752 60.3034 2.0752C60.0436 2.0752 59.8476 2.00456 59.7155 1.86328C59.5879 1.72201 59.5241 1.54655 59.5241 1.33691ZM63.7055 1.33691C63.7055 1.11816 63.7693 0.935872 63.8969 0.790039C64.029 0.644206 64.225 0.571289 64.4848 0.571289C64.7445 0.571289 64.9405 0.644206 65.0727 0.790039C65.2094 0.935872 65.2777 1.11816 65.2777 1.33691C65.2777 1.54655 65.2094 1.72201 65.0727 1.86328C64.9405 2.00456 64.7445 2.0752 64.4848 2.0752C64.225 2.0752 64.029 2.00456 63.8969 1.86328C63.7693 1.72201 63.7055 1.54655 63.7055 1.33691Z" fill="#0C0C0C"/>
</svg>
