<svg width="49" height="3" viewBox="0 0 49 3" fill="none" xmlns="http://www.w3.org/2000/svg">
<path d="M0.773438 1.479C0.773438 1.30713 0.823568 1.1639 0.923828 1.04932C1.02767 0.934733 1.18164 0.877441 1.38574 0.877441C1.58984 0.877441 1.74382 0.934733 1.84766 1.04932C1.95508 1.1639 2.00879 1.30713 2.00879 1.479C2.00879 1.64372 1.95508 1.78158 1.84766 1.89258C1.74382 2.00358 1.58984 2.05908 1.38574 2.05908C1.18164 2.05908 1.02767 2.00358 0.923828 1.89258C0.823568 1.78158 0.773438 1.64372 0.773438 1.479ZM3.67383 1.479C3.67383 1.30713 3.72396 1.1639 3.82422 1.04932C3.92806 0.934733 4.08203 0.877441 4.28613 0.877441C4.49023 0.877441 4.64421 0.934733 4.74805 1.04932C4.85547 1.1639 4.90918 1.30713 4.90918 1.479C4.90918 1.64372 4.85547 1.78158 4.74805 1.89258C4.64421 2.00358 4.49023 2.05908 4.28613 2.05908C4.08203 2.05908 3.92806 2.00358 3.82422 1.89258C3.72396 1.78158 3.67383 1.64372 3.67383 1.479ZM6.57422 1.479C6.57422 1.30713 6.62435 1.1639 6.72461 1.04932C6.82845 0.934733 6.98242 0.877441 7.18652 0.877441C7.39062 0.877441 7.5446 0.934733 7.64844 1.04932C7.75586 1.1639 7.80957 1.30713 7.80957 1.479C7.80957 1.64372 7.75586 1.78158 7.64844 1.89258C7.5446 2.00358 7.39062 2.05908 7.18652 2.05908C6.98242 2.05908 6.82845 2.00358 6.72461 1.89258C6.62435 1.78158 6.57422 1.64372 6.57422 1.479ZM9.47461 1.479C9.47461 1.30713 9.52474 1.1639 9.625 1.04932C9.72884 0.934733 9.88281 0.877441 10.0869 0.877441C10.291 0.877441 10.445 0.934733 10.5488 1.04932C10.6562 1.1639 10.71 1.30713 10.71 1.479C10.71 1.64372 10.6562 1.78158 10.5488 1.89258C10.445 2.00358 10.291 2.05908 10.0869 2.05908C9.88281 2.05908 9.72884 2.00358 9.625 1.89258C9.52474 1.78158 9.47461 1.64372 9.47461 1.479ZM12.375 1.479C12.375 1.30713 12.4251 1.1639 12.5254 1.04932C12.6292 0.934733 12.7832 0.877441 12.9873 0.877441C13.1914 0.877441 13.3454 0.934733 13.4492 1.04932C13.5566 1.1639 13.6104 1.30713 13.6104 1.479C13.6104 1.64372 13.5566 1.78158 13.4492 1.89258C13.3454 2.00358 13.1914 2.05908 12.9873 2.05908C12.7832 2.05908 12.6292 2.00358 12.5254 1.89258C12.4251 1.78158 12.375 1.64372 12.375 1.479ZM15.2754 1.479C15.2754 1.30713 15.3255 1.1639 15.4258 1.04932C15.5296 0.934733 15.6836 0.877441 15.8877 0.877441C16.0918 0.877441 16.2458 0.934733 16.3496 1.04932C16.457 1.1639 16.5107 1.30713 16.5107 1.479C16.5107 1.64372 16.457 1.78158 16.3496 1.89258C16.2458 2.00358 16.0918 2.05908 15.8877 2.05908C15.6836 2.05908 15.5296 2.00358 15.4258 1.89258C15.3255 1.78158 15.2754 1.64372 15.2754 1.479ZM18.1758 1.479C18.1758 1.30713 18.2259 1.1639 18.3262 1.04932C18.43 0.934733 18.584 0.877441 18.7881 0.877441C18.9922 0.877441 19.1462 0.934733 19.25 1.04932C19.3574 1.1639 19.4111 1.30713 19.4111 1.479C19.4111 1.64372 19.3574 1.78158 19.25 1.89258C19.1462 2.00358 18.9922 2.05908 18.7881 2.05908C18.584 2.05908 18.43 2.00358 18.3262 1.89258C18.2259 1.78158 18.1758 1.64372 18.1758 1.479ZM21.0762 1.479C21.0762 1.30713 21.1263 1.1639 21.2266 1.04932C21.3304 0.934733 21.4844 0.877441 21.6885 0.877441C21.8926 0.877441 22.0465 0.934733 22.1504 1.04932C22.2578 1.1639 22.3115 1.30713 22.3115 1.479C22.3115 1.64372 22.2578 1.78158 22.1504 1.89258C22.0465 2.00358 21.8926 2.05908 21.6885 2.05908C21.4844 2.05908 21.3304 2.00358 21.2266 1.89258C21.1263 1.78158 21.0762 1.64372 21.0762 1.479ZM23.9766 1.479C23.9766 1.30713 24.0267 1.1639 24.127 1.04932C24.2308 0.934733 24.3848 0.877441 24.5889 0.877441C24.793 0.877441 24.9469 0.934733 25.0508 1.04932C25.1582 1.1639 25.2119 1.30713 25.2119 1.479C25.2119 1.64372 25.1582 1.78158 25.0508 1.89258C24.9469 2.00358 24.793 2.05908 24.5889 2.05908C24.3848 2.05908 24.2308 2.00358 24.127 1.89258C24.0267 1.78158 23.9766 1.64372 23.9766 1.479ZM26.877 1.479C26.877 1.30713 26.9271 1.1639 27.0273 1.04932C27.1312 0.934733 27.2852 0.877441 27.4893 0.877441C27.6934 0.877441 27.8473 0.934733 27.9512 1.04932C28.0586 1.1639 28.1123 1.30713 28.1123 1.479C28.1123 1.64372 28.0586 1.78158 27.9512 1.89258C27.8473 2.00358 27.6934 2.05908 27.4893 2.05908C27.2852 2.05908 27.1312 2.00358 27.0273 1.89258C26.9271 1.78158 26.877 1.64372 26.877 1.479ZM29.7773 1.479C29.7773 1.30713 29.8275 1.1639 29.9277 1.04932C30.0316 0.934733 30.1855 0.877441 30.3896 0.877441C30.5938 0.877441 30.7477 0.934733 30.8516 1.04932C30.959 1.1639 31.0127 1.30713 31.0127 1.479C31.0127 1.64372 30.959 1.78158 30.8516 1.89258C30.7477 2.00358 30.5938 2.05908 30.3896 2.05908C30.1855 2.05908 30.0316 2.00358 29.9277 1.89258C29.8275 1.78158 29.7773 1.64372 29.7773 1.479ZM32.6777 1.479C32.6777 1.30713 32.7279 1.1639 32.8281 1.04932C32.932 0.934733 33.0859 0.877441 33.29 0.877441C33.4941 0.877441 33.6481 0.934733 33.752 1.04932C33.8594 1.1639 33.9131 1.30713 33.9131 1.479C33.9131 1.64372 33.8594 1.78158 33.752 1.89258C33.6481 2.00358 33.4941 2.05908 33.29 2.05908C33.0859 2.05908 32.932 2.00358 32.8281 1.89258C32.7279 1.78158 32.6777 1.64372 32.6777 1.479ZM35.5781 1.479C35.5781 1.30713 35.6283 1.1639 35.7285 1.04932C35.8324 0.934733 35.9863 0.877441 36.1904 0.877441C36.3945 0.877441 36.5485 0.934733 36.6523 1.04932C36.7598 1.1639 36.8135 1.30713 36.8135 1.479C36.8135 1.64372 36.7598 1.78158 36.6523 1.89258C36.5485 2.00358 36.3945 2.05908 36.1904 2.05908C35.9863 2.05908 35.8324 2.00358 35.7285 1.89258C35.6283 1.78158 35.5781 1.64372 35.5781 1.479ZM38.4785 1.479C38.4785 1.30713 38.5286 1.1639 38.6289 1.04932C38.7327 0.934733 38.8867 0.877441 39.0908 0.877441C39.2949 0.877441 39.4489 0.934733 39.5527 1.04932C39.6602 1.1639 39.7139 1.30713 39.7139 1.479C39.7139 1.64372 39.6602 1.78158 39.5527 1.89258C39.4489 2.00358 39.2949 2.05908 39.0908 2.05908C38.8867 2.05908 38.7327 2.00358 38.6289 1.89258C38.5286 1.78158 38.4785 1.64372 38.4785 1.479ZM41.3789 1.479C41.3789 1.30713 41.429 1.1639 41.5293 1.04932C41.6331 0.934733 41.7871 0.877441 41.9912 0.877441C42.1953 0.877441 42.3493 0.934733 42.4531 1.04932C42.5605 1.1639 42.6143 1.30713 42.6143 1.479C42.6143 1.64372 42.5605 1.78158 42.4531 1.89258C42.3493 2.00358 42.1953 2.05908 41.9912 2.05908C41.7871 2.05908 41.6331 2.00358 41.5293 1.89258C41.429 1.78158 41.3789 1.64372 41.3789 1.479ZM44.2793 1.479C44.2793 1.30713 44.3294 1.1639 44.4297 1.04932C44.5335 0.934733 44.6875 0.877441 44.8916 0.877441C45.0957 0.877441 45.2497 0.934733 45.3535 1.04932C45.4609 1.1639 45.5146 1.30713 45.5146 1.479C45.5146 1.64372 45.4609 1.78158 45.3535 1.89258C45.2497 2.00358 45.0957 2.05908 44.8916 2.05908C44.6875 2.05908 44.5335 2.00358 44.4297 1.89258C44.3294 1.78158 44.2793 1.64372 44.2793 1.479ZM47.1797 1.479C47.1797 1.30713 47.2298 1.1639 47.3301 1.04932C47.4339 0.934733 47.5879 0.877441 47.792 0.877441C47.9961 0.877441 48.1501 0.934733 48.2539 1.04932C48.3613 1.1639 48.415 1.30713 48.415 1.479C48.415 1.64372 48.3613 1.78158 48.2539 1.89258C48.1501 2.00358 47.9961 2.05908 47.792 2.05908C47.5879 2.05908 47.4339 2.00358 47.3301 1.89258C47.2298 1.78158 47.1797 1.64372 47.1797 1.479Z" fill="white"/>
</svg>
