<svg width="120" height="38" viewBox="0 0 120 38" fill="none" xmlns="http://www.w3.org/2000/svg">
<rect width="120" height="38" fill="#3C3C3B"/>
<path d="M55.7568 24H54.4375V15.127H49.5293V24H48.2168V14.0469H55.7568V24ZM58.1762 20.2334C58.1762 19.5088 58.3175 18.8571 58.6 18.2783C58.8871 17.6995 59.2836 17.2529 59.7895 16.9385C60.2999 16.624 60.881 16.4668 61.5327 16.4668C62.5398 16.4668 63.3533 16.8154 63.9731 17.5127C64.5974 18.21 64.9096 19.1374 64.9096 20.2949V20.3838C64.9096 21.1038 64.7706 21.751 64.4926 22.3252C64.2192 22.8949 63.825 23.3392 63.31 23.6582C62.7996 23.9772 62.2117 24.1367 61.5463 24.1367C60.5437 24.1367 59.7302 23.7881 59.1059 23.0908C58.4861 22.3936 58.1762 21.4707 58.1762 20.3223V20.2334ZM59.4477 20.3838C59.4477 21.2041 59.6368 21.8626 60.0151 22.3594C60.3979 22.8561 60.9083 23.1045 61.5463 23.1045C62.1889 23.1045 62.6993 22.8538 63.0776 22.3525C63.4558 21.8467 63.645 21.1403 63.645 20.2334C63.645 19.4222 63.4513 18.766 63.0639 18.2646C62.6811 17.7588 62.1707 17.5059 61.5327 17.5059C60.9083 17.5059 60.4047 17.7542 60.0219 18.251C59.6391 18.7477 59.4477 19.4587 59.4477 20.3838ZM71.8407 16.6035H73.1054V24H71.8407V18.6064L68.4296 24H67.1649V16.6035H68.4296V22.0039L71.8407 16.6035ZM78.6624 23.1045C79.1136 23.1045 79.5078 22.9678 79.845 22.6943C80.1823 22.4209 80.3691 22.0791 80.4056 21.6689H81.6019C81.5791 22.0928 81.4333 22.4961 81.1644 22.8789C80.8955 23.2617 80.5355 23.5671 80.0843 23.7949C79.6377 24.0228 79.1637 24.1367 78.6624 24.1367C77.6553 24.1367 76.8532 23.8018 76.2562 23.1318C75.6637 22.4574 75.3675 21.5368 75.3675 20.3701V20.1582C75.3675 19.4382 75.4997 18.7979 75.764 18.2373C76.0283 17.6768 76.4066 17.2415 76.8988 16.9316C77.3955 16.6217 77.9811 16.4668 78.6556 16.4668C79.485 16.4668 80.1732 16.7152 80.72 17.2119C81.2715 17.7087 81.5654 18.3535 81.6019 19.1465H80.4056C80.3691 18.668 80.1868 18.276 79.8587 17.9707C79.5351 17.6608 79.1341 17.5059 78.6556 17.5059C78.013 17.5059 77.514 17.7383 77.1585 18.2031C76.8076 18.6634 76.6321 19.3311 76.6321 20.2061V20.4453C76.6321 21.2975 76.8076 21.9538 77.1585 22.4141C77.5094 22.8743 78.0107 23.1045 78.6624 23.1045ZM85.8875 20.8486H84.9646V24H83.6931V16.6035H84.9646V19.7344H85.7918L88.28 16.6035H89.8113L86.8855 20.1582L90.0574 24H88.4509L85.8875 20.8486Z" fill="white"/>
<g clip-path="url(#clip0)">
<path d="M38.8399 24.345L34.6079 20.1131C34.5053 20.0105 34.3662 19.9529 34.2212 19.9529C34.0884 19.9529 33.9611 20.0016 33.8618 20.0884L33.2647 19.4913C34.6913 17.6866 34.5874 15.0432 32.9006 13.3564C32.9006 13.3564 32.9006 13.3564 32.9006 13.3564C31.0964 11.5521 28.1607 11.5521 26.3564 13.3564C24.548 15.1647 24.5477 18.0919 26.3564 19.9006C28.0192 21.5634 30.6643 21.7045 32.491 20.2643L33.0885 20.8618C32.9005 21.0766 32.9084 21.4031 33.1131 21.6078L37.3451 25.8398C37.5586 26.0532 37.905 26.0533 38.1185 25.8398L38.4791 25.4792C38.4791 25.4792 38.4792 25.4791 38.4792 25.4791C38.4792 25.4791 38.4792 25.4791 38.4792 25.479L38.8398 25.1184C39.0534 24.9049 39.0534 24.5586 38.8399 24.345ZM32.1273 19.1272C30.7463 20.5082 28.5109 20.5084 27.1298 19.1272C25.7488 17.7463 25.7485 15.5109 27.1298 14.1297C28.5075 12.7519 30.7494 12.7518 32.1273 14.1297C33.5082 15.5106 33.5085 17.746 32.1273 19.1272Z" fill="white"/>
</g>
<defs>
<clipPath id="clip0">
<rect width="14" height="14" fill="white" transform="translate(25 12)"/>
</clipPath>
</defs>
</svg>
