<svg width="273" height="48" viewBox="0 0 273 48" fill="none" xmlns="http://www.w3.org/2000/svg">
<path fill-rule="evenodd" clip-rule="evenodd" d="M15.9849 35.2395C15.8521 35.6122 15.6373 35.9536 15.3547 36.2409C15.0722 36.5281 14.7284 36.7547 14.3465 36.9053C13.9645 37.0559 13.5532 37.1271 13.1399 37.1141C12.7267 37.1012 12.3212 37.0044 11.9505 36.8303L5.96105 42.5264C6.26477 43.1132 6.33969 43.7836 6.17247 44.4182C6.00525 45.0527 5.60675 45.6101 5.04799 45.991C4.48923 46.372 3.80651 46.5517 3.12152 46.4981C2.43652 46.4446 1.79374 46.1613 1.30775 45.6987C0.821748 45.2362 0.524104 44.6244 0.467862 43.9724C0.41162 43.3204 0.600433 42.6705 1.00065 42.1387C1.40087 41.6069 1.98649 41.2276 2.65314 41.0684C3.31979 40.9092 4.02416 40.9806 4.64072 41.2696L10.6239 35.5747C10.4437 35.2352 10.3391 34.8639 10.3166 34.4841C10.2941 34.1043 10.3542 33.7241 10.4931 33.3674C10.632 33.0107 10.8468 32.6852 11.124 32.4111C11.4012 32.1371 11.7348 31.9204 12.104 31.7747C12.4732 31.629 12.87 31.5574 13.2696 31.5643C13.6692 31.5713 14.063 31.6566 14.4263 31.8151C14.7897 31.9736 15.1147 32.2017 15.3812 32.4852C15.6477 32.7687 15.8498 33.1016 15.9749 33.4628H20.3466C20.491 33.0602 20.7309 32.6947 21.0477 32.3946C21.3645 32.0944 21.7497 31.8678 22.1734 31.7323V27.5867C21.7875 27.4738 21.4305 27.2855 21.1253 27.0338C20.8201 26.7822 20.5734 26.4728 20.4009 26.1253C20.2284 25.7778 20.134 25.3999 20.1235 25.0157C20.1131 24.6315 20.1869 24.2495 20.3403 23.894C20.4937 23.5385 20.7233 23.2174 21.0144 22.9511C21.3055 22.6847 21.6518 22.4791 22.0311 22.3474C22.4103 22.2156 22.8143 22.1605 23.2172 22.1857C23.6201 22.2108 24.0131 22.3157 24.371 22.4935L30.3667 16.7868C30.0624 16.2006 29.9867 15.5306 30.1531 14.8962C30.3194 14.2618 30.717 13.7043 31.2749 13.3229C31.8329 12.9415 32.515 12.761 33.1997 12.8136C33.8844 12.8663 34.5272 13.1486 35.0137 13.6103C35.5001 14.0719 35.7985 14.683 35.8557 15.3346C35.913 15.9861 35.7253 16.6359 35.3262 17.168C34.927 17.7002 34.3424 18.0801 33.6764 18.2403C33.0103 18.4004 32.3062 18.3302 31.6895 18.0423L25.674 23.7692C25.848 24.1175 25.9436 24.4966 25.9547 24.8821C25.9658 25.2677 25.8921 25.6512 25.7384 26.0081C25.5847 26.3649 25.3543 26.6873 25.0621 26.9544C24.7698 27.2216 24.4221 27.4277 24.0413 27.5595V31.743C24.5078 31.8956 24.9257 32.1588 25.2558 32.5078C25.5858 32.8567 25.817 33.28 25.9277 33.7375C26.0383 34.1951 26.0246 34.6719 25.888 35.1231C25.7514 35.5743 25.4963 35.9848 25.1467 36.3162C24.7972 36.6475 24.3648 36.8887 23.8903 37.0169C23.4157 37.1451 22.9147 37.1561 22.4344 37.049C21.9541 36.9419 21.5104 36.7201 21.1452 36.4045C20.7799 36.089 20.505 35.6901 20.3466 35.2455L15.9849 35.2395Z" fill="#95B03C"/>
<path fill-rule="evenodd" clip-rule="evenodd" d="M6.25961 15.559C6.25961 16.1055 6.08933 16.6398 5.77032 17.0942C5.45131 17.5487 4.99788 17.9029 4.46739 18.112C3.93689 18.3212 3.35314 18.3759 2.78997 18.2693C2.2268 18.1626 1.70949 17.8995 1.30347 17.513C0.89744 17.1265 0.620934 16.6342 0.508912 16.0981C0.39689 15.5621 0.454383 15.0065 0.674122 14.5015C0.893861 13.9966 1.26598 13.565 1.74341 13.2614C2.22085 12.9577 2.78216 12.7957 3.35636 12.7957C4.12635 12.7957 4.86481 13.0868 5.40927 13.605C5.95373 14.1233 6.25961 14.8261 6.25961 15.559ZM6.25961 24.9542C6.25961 25.5008 6.0893 26.0351 5.77023 26.4895C5.45117 26.944 4.99767 27.2982 4.4671 27.5073C3.93653 27.7164 3.35272 27.7711 2.78952 27.6643C2.22631 27.5576 1.709 27.2943 1.30303 26.9077C0.897049 26.5212 0.620641 26.0287 0.50876 25.4926C0.396878 24.9564 0.454549 24.4008 0.674479 23.8959C0.894409 23.3909 1.26672 22.9595 1.74432 22.656C2.22192 22.3525 2.78335 22.1906 3.35761 22.1908C4.12728 22.1915 4.86522 22.4828 5.40934 23.001C5.95347 23.5191 6.25928 24.2216 6.25961 24.9542ZM16.1316 24.9542C16.1316 25.5007 15.9613 26.035 15.6423 26.4894C15.3233 26.9438 14.8699 27.298 14.3394 27.5072C13.8089 27.7163 13.2252 27.7711 12.662 27.6644C12.0988 27.5578 11.5815 27.2946 11.1755 26.9082C10.7695 26.5217 10.4929 26.0293 10.3809 25.4933C10.2689 24.9572 10.3264 24.4016 10.5461 23.8967C10.7659 23.3917 11.138 22.9602 11.6154 22.6565C12.0929 22.3529 12.6542 22.1908 13.2284 22.1908C13.9983 22.1911 14.7365 22.4824 15.2809 23.0005C15.8253 23.5187 16.1313 24.2214 16.1316 24.9542ZM16.1316 15.559C16.1316 16.1055 15.9613 16.6398 15.6423 17.0942C15.3233 17.5487 14.8699 17.9029 14.3394 18.112C13.8089 18.3212 13.2252 18.3759 12.662 18.2693C12.0988 18.1626 11.5815 17.8995 11.1755 17.513C10.7695 17.1265 10.4929 16.6342 10.3809 16.0981C10.2689 15.5621 10.3264 15.0065 10.5461 14.5015C10.7659 13.9966 11.138 13.565 11.6154 13.2614C12.0929 12.9577 12.6542 12.7957 13.2284 12.7957C13.9983 12.796 14.7365 13.0872 15.2809 13.6054C15.8253 14.1235 16.1313 14.8262 16.1316 15.559ZM25.9626 15.559C25.9626 16.1053 25.7924 16.6394 25.4736 17.0938C25.1548 17.5481 24.7017 17.9023 24.1715 18.1116C23.6413 18.3208 23.0578 18.3758 22.4948 18.2696C21.9317 18.1634 21.4144 17.9007 21.0082 17.5147C20.6019 17.1287 20.3251 16.6367 20.2125 16.101C20.0999 15.5653 20.1567 15.0098 20.3756 14.5048C20.5946 13.9998 20.966 13.5679 21.4427 13.2637C21.9195 12.9595 22.4803 12.7966 23.0543 12.7957C23.8243 12.7957 24.5628 13.0868 25.1072 13.605C25.6517 14.1233 25.9576 14.8261 25.9576 15.559H25.9626ZM35.8794 24.9542C35.8794 25.5008 35.7091 26.0351 35.39 26.4895C35.0709 26.944 34.6174 27.2982 34.0869 27.5073C33.5563 27.7164 32.9725 27.7711 32.4093 27.6643C31.8461 27.5576 31.3288 27.2943 30.9228 26.9077C30.5168 26.5212 30.2404 26.0287 30.1285 25.4926C30.0166 24.9564 30.0743 24.4008 30.2942 23.8959C30.5142 23.3909 30.8865 22.9595 31.3641 22.656C31.8417 22.3525 32.4031 22.1906 32.9774 22.1908C33.7463 22.1924 34.4831 22.4842 35.0262 23.0023C35.5694 23.5203 35.8744 24.2223 35.8744 24.9542H35.8794ZM35.8794 34.3505C35.8794 34.8971 35.7091 35.4314 35.39 35.8859C35.0709 36.3403 34.6174 36.6945 34.0869 36.9036C33.5563 37.1128 32.9725 37.1674 32.4093 37.0607C31.8461 36.954 31.3288 36.6907 30.9228 36.3041C30.5168 35.9175 30.2404 35.425 30.1285 34.8889C30.0166 34.3528 30.0743 33.7971 30.2942 33.2922C30.5142 32.7873 30.8865 32.3558 31.3641 32.0523C31.8417 31.7488 32.4031 31.5869 32.9774 31.5872C33.7467 31.5887 34.4839 31.8809 35.0271 32.3995C35.5703 32.918 35.875 33.6206 35.8744 34.3529L35.8794 34.3505ZM35.8794 43.7469C35.8799 44.2934 35.7101 44.8277 35.3916 45.2824C35.073 45.7371 34.62 46.0916 34.0897 46.3012C33.5595 46.5109 32.9759 46.5661 32.4126 46.46C31.8494 46.354 31.3319 46.0913 30.9254 45.7053C30.519 45.3193 30.242 44.8273 30.1293 44.2914C30.0167 43.7555 30.0735 43.1999 30.2926 42.6948C30.5117 42.1896 30.8832 41.7577 31.3602 41.4535C31.8372 41.1493 32.3982 40.9866 32.9724 40.9859C33.7418 40.9859 34.4798 41.2767 35.024 41.7945C35.5682 42.3122 35.8741 43.0145 35.8744 43.7469H35.8794ZM25.9626 43.7469C25.963 44.2933 25.7933 44.8276 25.4748 45.2823C25.1563 45.7369 24.7034 46.0915 24.1732 46.3011C23.643 46.5108 23.0595 46.5661 22.4963 46.4601C21.9331 46.3542 21.4155 46.0916 21.0091 45.7057C20.6026 45.3198 20.3254 44.8279 20.2127 44.2921C20.0999 43.7563 20.1565 43.2007 20.3754 42.6956C20.5943 42.1904 20.9656 41.7584 21.4425 41.4541C21.9193 41.1498 22.4802 40.9868 23.0543 40.9859C23.8239 40.9859 24.562 41.2767 25.1064 41.7944C25.6508 42.3121 25.9569 43.0144 25.9576 43.7469H25.9626ZM16.1316 43.7469C16.1321 44.2935 15.9623 44.828 15.6435 45.2828C15.3248 45.7375 14.8716 46.0921 14.3411 46.3016C13.8107 46.5111 13.2268 46.5662 12.6635 46.4598C12.1002 46.3534 11.5826 46.0904 11.1764 45.7041C10.7701 45.3177 10.4933 44.8253 10.3811 44.2892C10.2689 43.7531 10.3262 43.1974 10.5459 42.6923C10.7656 42.1872 11.1377 41.7555 11.6152 41.4518C12.0927 41.148 12.6541 40.9859 13.2284 40.9859C13.9978 40.9862 14.7357 41.2771 15.28 41.7948C15.8243 42.3124 16.1306 43.0145 16.1316 43.7469ZM6.25961 34.3529C6.25961 34.8995 6.0893 35.4338 5.77023 35.8883C5.45117 36.3427 4.99767 36.6969 4.4671 36.906C3.93653 37.1151 3.35272 37.1698 2.78952 37.0631C2.22631 36.9563 1.709 36.693 1.30303 36.3065C0.897049 35.9199 0.620641 35.4274 0.50876 34.8913C0.396878 34.3552 0.454549 33.7995 0.674479 33.2946C0.894409 32.7897 1.26672 32.3582 1.74432 32.0547C2.22192 31.7512 2.78335 31.5893 3.35761 31.5895C4.12728 31.5902 4.86522 31.8815 5.40934 32.3997C5.95347 32.9178 6.25928 33.6203 6.25961 34.3529Z" fill="#3C3C3B"/>
<path fill-rule="evenodd" clip-rule="evenodd" d="M188.514 45.9899V42.5612C188.521 42.2823 188.475 42.0046 188.379 41.741C188.272 41.4745 188.104 41.2342 187.886 41.0379C187.721 40.881 187.52 40.761 187.3 40.6864C187.048 40.6021 186.782 40.5593 186.515 40.5598C186.298 40.5582 186.082 40.5818 185.872 40.6301C185.677 40.6806 185.491 40.7597 185.321 40.8645C185.14 40.9722 184.975 41.1014 184.828 41.2488C184.66 41.026 184.435 40.8484 184.173 40.7333C183.907 40.6182 183.618 40.5614 183.326 40.5669C183.153 40.568 182.981 40.5892 182.814 40.6301C182.646 40.6727 182.484 40.7365 182.334 40.82C182.183 40.9028 182.043 41.0045 181.92 41.1223V40.6278H180.549V45.9899H181.957V42.7487C181.952 42.5888 181.981 42.4295 182.041 42.28C182.088 42.1648 182.163 42.0619 182.26 41.98C182.348 41.9053 182.451 41.8486 182.563 41.8136C182.671 41.78 182.784 41.7634 182.898 41.7644C183.011 41.7647 183.123 41.7813 183.23 41.8136C183.34 41.8493 183.442 41.9059 183.528 41.98C183.623 42.0629 183.696 42.1656 183.742 42.28C183.802 42.4295 183.831 42.5888 183.826 42.7487V45.9899H185.232V42.7089C185.229 42.5565 185.258 42.405 185.318 42.2636C185.369 42.1524 185.444 42.0532 185.54 41.973C185.628 41.9006 185.731 41.8456 185.843 41.8113C185.949 41.778 186.06 41.7614 186.172 41.7621C186.286 41.7622 186.399 41.7788 186.507 41.8113C186.617 41.8464 186.718 41.9031 186.803 41.9777C186.899 42.0597 186.974 42.1626 187.019 42.2777C187.078 42.4274 187.107 42.5865 187.103 42.7464V45.9875L188.514 45.9899ZM176.41 43.3041C176.414 43.5085 176.403 43.7129 176.378 43.9158C176.363 44.0835 176.321 44.248 176.252 44.4033C176.193 44.537 176.092 44.6505 175.964 44.729C175.809 44.8074 175.635 44.8484 175.459 44.8484C175.283 44.8484 175.11 44.8074 174.955 44.729C174.826 44.6505 174.726 44.537 174.667 44.4033C174.599 44.2478 174.555 44.0835 174.539 43.9158C174.516 43.7127 174.505 43.5084 174.507 43.3041C174.505 43.1006 174.516 42.8972 174.539 42.6948C174.555 42.5279 174.599 42.3644 174.667 42.2097C174.726 42.0771 174.826 41.965 174.955 41.8886C175.108 41.8046 175.283 41.764 175.459 41.7715C175.632 41.7673 175.802 41.8078 175.952 41.8886C176.08 41.965 176.181 42.0771 176.24 42.2097C176.308 42.3642 176.351 42.5279 176.366 42.6948C176.395 42.8967 176.41 43.1003 176.41 43.3041ZM177.816 43.3041C177.816 43.1003 177.816 42.8987 177.816 42.6901C177.809 42.4842 177.787 42.2791 177.749 42.0761C177.718 41.8833 177.661 41.6951 177.579 41.516C177.443 41.2045 177.195 40.9488 176.88 40.7942C176.733 40.7186 176.575 40.6618 176.412 40.6254C176.238 40.5867 176.06 40.567 175.88 40.5669C175.614 40.5605 175.349 40.6043 175.1 40.6958C174.859 40.794 174.645 40.944 174.475 41.134V40.6278H173.093V47.9515H174.497V45.5165C174.661 45.6975 174.868 45.8395 175.1 45.9313C175.343 46.0166 175.602 46.0572 175.861 46.0508C176.04 46.0518 176.218 46.0322 176.393 45.9922C176.556 45.9567 176.713 45.9007 176.86 45.8258C177.177 45.6724 177.426 45.4153 177.56 45.1017C177.64 44.9207 177.697 44.731 177.73 44.5369C177.767 44.3339 177.789 44.1287 177.796 43.9229C177.816 43.7119 177.818 43.4987 177.816 43.3041ZM168.952 43.3041C168.952 43.4893 168.952 43.6651 168.932 43.8291C168.921 43.9796 168.891 44.1283 168.843 44.272C168.798 44.3986 168.725 44.5144 168.629 44.6119C168.547 44.6879 168.45 44.7476 168.344 44.7876C168.224 44.8293 168.097 44.8499 167.969 44.8486C167.843 44.8504 167.716 44.8297 167.598 44.7876C167.493 44.7481 167.398 44.6882 167.319 44.6119C167.222 44.5157 167.148 44.3994 167.105 44.272C167.056 44.1284 167.026 43.9797 167.014 43.8291C166.999 43.6651 166.992 43.4893 166.994 43.3041C166.997 43.119 166.994 42.9456 167.014 42.7839C167.026 42.6341 167.056 42.4861 167.105 42.3433C167.148 42.2173 167.222 42.1026 167.319 42.0082C167.399 41.9318 167.493 41.8713 167.598 41.83C167.717 41.7897 167.843 41.7699 167.969 41.7715C168.097 41.7703 168.223 41.7901 168.344 41.83C168.45 41.8709 168.547 41.9314 168.629 42.0082C168.725 42.1042 168.798 42.2185 168.843 42.3433C168.891 42.4862 168.921 42.6342 168.932 42.7839C168.949 42.9432 168.957 43.119 168.954 43.3041H168.952ZM170.358 43.3041C170.36 43.0175 170.343 42.731 170.306 42.4464C170.274 42.2147 170.209 41.9883 170.112 41.7738C170.015 41.5708 169.883 41.3853 169.72 41.2254C169.594 41.1002 169.452 40.9908 169.297 40.8996C169.115 40.7958 168.92 40.7169 168.715 40.6653C168.227 40.5403 167.712 40.5403 167.223 40.6653C167.021 40.7169 166.827 40.7958 166.647 40.8996C166.494 40.9907 166.353 41.1001 166.229 41.2254C166.065 41.3846 165.932 41.5703 165.837 41.7738C165.737 41.9875 165.672 42.2142 165.643 42.4464C165.604 42.7308 165.586 43.0174 165.588 43.3041C165.586 43.5932 165.604 43.8822 165.643 44.1689C165.672 44.4026 165.737 44.6309 165.837 44.8462C165.933 45.0489 166.065 45.2338 166.229 45.3923C166.352 45.5189 166.493 45.6292 166.647 45.7204C166.827 45.8233 167.021 45.9021 167.223 45.9547C167.464 46.0169 167.713 46.0476 167.962 46.0461C168.211 46.0485 168.46 46.0177 168.701 45.9547C168.905 45.9021 169.1 45.8233 169.282 45.7204C169.437 45.6292 169.58 45.5189 169.705 45.3923C169.868 45.2332 170 45.0484 170.097 44.8462C170.195 44.6302 170.26 44.4022 170.291 44.1689C170.334 43.8824 170.357 43.5935 170.36 43.3041H170.358ZM163.518 45.9899V44.8579H162.976C162.907 44.8644 162.837 44.8568 162.772 44.8358C162.706 44.8148 162.645 44.7808 162.594 44.7361C162.509 44.634 162.468 44.5051 162.479 44.3752V38.6615H161.078V44.4572C161.076 44.6475 161.108 44.8367 161.171 45.0173C161.232 45.198 161.332 45.3648 161.464 45.5071C161.604 45.6607 161.779 45.7811 161.976 45.8586C162.21 45.9503 162.462 45.995 162.715 45.9899H163.518ZM157.045 42.8097H154.905C154.906 42.739 154.912 42.6685 154.925 42.5987C154.934 42.5378 154.947 42.4776 154.964 42.4183C154.984 42.3552 155.007 42.2933 155.035 42.2331C155.085 42.1267 155.154 42.0299 155.24 41.9472C155.329 41.8627 155.435 41.7965 155.552 41.7527C155.824 41.6528 156.125 41.6528 156.397 41.7527C156.514 41.7965 156.621 41.8627 156.71 41.9472C156.796 42.0304 156.866 42.1271 156.917 42.2331C156.943 42.2936 156.966 42.3554 156.985 42.4183C157.005 42.477 157.018 42.5374 157.025 42.5987C157.038 42.6684 157.045 42.7389 157.047 42.8097H157.045ZM158.431 43.726V43.1307C158.435 42.7838 158.379 42.4386 158.266 42.1089C158.165 41.8109 158.003 41.5346 157.791 41.2957C157.579 41.0644 157.316 40.8818 157.02 40.7614C156.69 40.6293 156.334 40.5631 155.976 40.5669C155.633 40.5639 155.292 40.626 154.974 40.7497C154.677 40.8677 154.413 41.0489 154.201 41.2793C153.977 41.5315 153.81 41.824 153.708 42.1394C153.586 42.5189 153.526 42.9142 153.531 43.3112C153.525 43.6891 153.573 44.066 153.674 44.4314C153.754 44.7129 153.885 44.9788 154.063 45.2165C154.222 45.417 154.419 45.5872 154.644 45.718C154.864 45.8414 155.103 45.9308 155.353 45.9828C155.61 46.035 155.873 46.0602 156.136 46.0578C156.432 46.0632 156.728 46.0308 157.015 45.9618C157.255 45.9012 157.484 45.8047 157.692 45.6758C157.905 45.541 158.1 45.3838 158.276 45.2071L157.424 44.4127C157.316 44.5179 157.197 44.6121 157.069 44.6939C156.948 44.7702 156.814 44.8272 156.673 44.8626C156.5 44.9018 156.323 44.9207 156.146 44.9189C155.912 44.9235 155.681 44.8694 155.476 44.7619C155.297 44.6623 155.152 44.5159 155.058 44.34C154.96 44.148 154.911 43.9369 154.915 43.7237L158.431 43.726ZM151.672 40.6278H150.195L149.06 43.9416L147.912 40.6278H146.435L148.511 45.9899H149.614L151.672 40.6278ZM143.202 42.8097H141.062C141.064 42.7391 141.07 42.6687 141.08 42.5987C141.089 42.5378 141.102 42.4776 141.119 42.4183C141.139 42.3597 141.161 42.2988 141.19 42.2331C141.241 42.1272 141.31 42.0305 141.395 41.9472C141.485 41.8627 141.592 41.7965 141.71 41.7527C141.981 41.6527 142.281 41.6527 142.552 41.7527C142.669 41.7965 142.776 41.8627 142.865 41.9472C142.951 42.0298 143.021 42.1266 143.072 42.2331C143.099 42.2936 143.123 42.3554 143.143 42.4183C143.16 42.4775 143.174 42.5378 143.182 42.5987C143.197 42.662 143.202 42.7347 143.207 42.8097H143.202ZM144.586 43.726V43.1307C144.59 42.784 144.535 42.439 144.423 42.1089C144.321 41.8107 144.159 41.5344 143.946 41.2957C143.734 41.0644 143.471 40.8818 143.175 40.7614C142.845 40.6293 142.489 40.5631 142.131 40.5669C141.788 40.5639 141.448 40.626 141.131 40.7497C140.834 40.8677 140.568 41.0488 140.356 41.2793C140.132 41.5315 139.965 41.824 139.863 42.1394C139.741 42.5189 139.681 42.9142 139.686 43.3112C139.68 43.6892 139.729 44.0661 139.831 44.4314C139.91 44.7133 140.042 44.9793 140.22 45.2165C140.378 45.4174 140.574 45.5877 140.799 45.718C141.02 45.8414 141.26 45.9308 141.511 45.9828C141.767 46.0352 142.029 46.0603 142.291 46.0578C142.588 46.0631 142.884 46.0308 143.173 45.9618C143.413 45.9008 143.641 45.8043 143.85 45.6758C144.062 45.5404 144.257 45.3832 144.433 45.2071L143.579 44.4127C143.472 44.519 143.353 44.6134 143.224 44.6939C143.103 44.771 142.969 44.8281 142.828 44.8626C142.656 44.9018 142.48 44.9207 142.303 44.9189C142.069 44.9242 141.838 44.87 141.634 44.7619C141.454 44.663 141.308 44.5164 141.215 44.34C141.115 44.1486 141.066 43.9372 141.07 43.7237L144.586 43.726ZM135.572 43.3041C135.575 43.5084 135.565 43.7127 135.542 43.9158C135.523 44.0835 135.478 44.2477 135.409 44.4033C135.348 44.5373 135.246 44.6508 135.116 44.729C134.962 44.8127 134.786 44.8541 134.609 44.8486C134.436 44.8525 134.266 44.8111 134.117 44.729C133.987 44.6514 133.887 44.5376 133.828 44.4033C133.76 44.2479 133.716 44.0836 133.698 43.9158C133.676 43.7126 133.666 43.5084 133.668 43.3041C133.668 43.1007 133.677 42.8973 133.698 42.6948C133.716 42.5278 133.76 42.3642 133.828 42.2097C133.888 42.0771 133.988 41.965 134.117 41.8886C134.266 41.8067 134.437 41.7661 134.609 41.7715C134.786 41.7652 134.962 41.8058 135.116 41.8886C135.25 41.964 135.356 42.0759 135.421 42.2097C135.49 42.3645 135.535 42.5279 135.554 42.6948C135.575 42.8973 135.582 43.1008 135.577 43.3041H135.572ZM136.978 45.9899V38.6615H135.572V41.1012C135.406 40.9197 135.197 40.7777 134.964 40.6864C134.719 40.6014 134.46 40.5609 134.2 40.5669C134.021 40.5667 133.843 40.5864 133.668 40.6254C133.505 40.6618 133.346 40.7185 133.198 40.7942C133.061 40.8611 132.935 40.9481 132.826 41.052C132.687 41.1871 132.576 41.3462 132.499 41.5207C132.419 41.7005 132.362 41.8884 132.329 42.0808C132.294 42.284 132.272 42.4891 132.265 42.6948C132.265 42.9011 132.25 43.1073 132.253 43.3088C132.255 43.5104 132.253 43.7166 132.265 43.9275C132.272 44.1333 132.294 44.3384 132.329 44.5416C132.362 44.7354 132.419 44.925 132.499 45.1064C132.577 45.2803 132.688 45.4392 132.826 45.5751C132.937 45.6772 133.063 45.7632 133.201 45.8305C133.351 45.9051 133.511 45.961 133.676 45.9969C133.851 46.0367 134.03 46.0564 134.21 46.0555C134.391 46.0579 134.572 46.0398 134.749 46.0016C134.909 45.9645 135.062 45.9036 135.202 45.8211C135.353 45.7306 135.488 45.6192 135.604 45.4907V45.9946L136.978 45.9899ZM123.953 40.3395C123.952 40.4649 123.907 40.5865 123.824 40.684C123.736 40.7911 123.629 40.8837 123.509 40.9582L123.45 40.9981L123.317 41.0848L123.187 41.1645C123.093 41.0637 123.012 40.97 122.941 40.8786C122.87 40.7944 122.809 40.7033 122.758 40.6067C122.712 40.5252 122.687 40.4345 122.684 40.3419C122.681 40.2359 122.706 40.1308 122.758 40.0372C122.803 39.9464 122.877 39.8716 122.97 39.824C123.078 39.7675 123.199 39.7399 123.322 39.7443C123.443 39.7405 123.562 39.7681 123.667 39.824C123.761 39.8726 123.837 39.9469 123.886 40.0372C123.936 40.1308 123.96 40.2347 123.957 40.3395H123.953ZM124.322 44.4056C124.164 44.5441 123.981 44.6552 123.783 44.7337C123.589 44.8052 123.382 44.841 123.174 44.8392C122.969 44.8397 122.767 44.7939 122.584 44.7056C122.412 44.6238 122.267 44.499 122.165 44.3447C122.061 44.1832 122.007 43.9974 122.007 43.808C122.006 43.6515 122.039 43.4965 122.106 43.3534C122.173 43.2208 122.265 43.1008 122.377 42.9995C122.503 42.8845 122.64 42.7802 122.785 42.6878L124.322 44.4056ZM127.523 45.9899L126.141 44.4361C126.41 44.1464 126.612 43.8063 126.735 43.4377C126.871 43.0244 126.948 42.5956 126.964 42.1628H125.634C125.627 42.406 125.59 42.6475 125.523 42.8823C125.468 43.0859 125.373 43.278 125.245 43.4494L123.948 41.9871L124.115 41.8769L124.297 41.7504C124.356 41.7105 124.401 41.6754 124.44 41.6472L124.499 41.6074C124.65 41.5044 124.79 41.3866 124.915 41.2559C125.03 41.1329 125.122 40.9928 125.189 40.8411C125.256 40.6786 125.29 40.505 125.287 40.3302C125.292 40.0175 125.207 39.7095 125.041 39.4396C124.882 39.1777 124.647 38.9652 124.364 38.8279C124.039 38.671 123.679 38.5906 123.315 38.5936C122.934 38.5863 122.557 38.6624 122.212 38.8162C121.921 38.9469 121.676 39.1554 121.508 39.4162C121.342 39.6844 121.257 39.9909 121.261 40.302C121.262 40.4687 121.288 40.6344 121.338 40.7942C121.385 40.941 121.448 41.0824 121.527 41.216C121.602 41.3387 121.684 41.4569 121.773 41.5699C121.862 41.6777 121.948 41.7715 122.02 41.8558C121.849 41.9652 121.685 42.0834 121.527 42.2097C121.364 42.3402 121.216 42.4863 121.084 42.6456C120.951 42.8082 120.843 42.9881 120.764 43.1799C120.684 43.3854 120.643 43.6029 120.643 43.8221C120.631 44.2342 120.728 44.6427 120.924 45.0103C121.114 45.3444 121.411 45.6127 121.771 45.7766C122.215 45.9668 122.698 46.0581 123.184 46.0438C123.428 46.0459 123.67 46.0223 123.908 45.9735C124.098 45.9342 124.282 45.8744 124.457 45.7954C124.6 45.7288 124.737 45.6504 124.866 45.561L125.174 45.3267L125.735 45.9641L127.523 45.9899ZM115.362 45.9899V42.5214C115.365 42.2561 115.324 41.9919 115.241 41.7386C115.168 41.5114 115.046 41.3008 114.884 41.1199C114.723 40.9432 114.522 40.8038 114.296 40.7122C114.037 40.6124 113.76 40.563 113.481 40.5669C113.234 40.5665 112.989 40.6136 112.762 40.7051C112.524 40.8038 112.309 40.9454 112.129 41.1223V38.6615H110.726V45.9899H112.129V42.7089C112.126 42.5569 112.153 42.4057 112.21 42.2636C112.252 42.1582 112.318 42.0629 112.403 41.9846C112.488 41.9064 112.591 41.8472 112.703 41.8113C112.809 41.7777 112.921 41.761 113.033 41.7621C113.145 41.7627 113.257 41.7785 113.365 41.8089C113.473 41.8425 113.573 41.8967 113.658 41.9683C113.752 42.0484 113.825 42.1489 113.87 42.2613C113.928 42.4038 113.956 42.556 113.951 42.7089V45.9899H115.362ZM108.221 45.322L107.283 44.4361C107.199 44.5243 107.104 44.6029 107 44.6705C106.911 44.7299 106.813 44.7765 106.71 44.8087C106.601 44.8378 106.488 44.852 106.375 44.8509C106.221 44.8535 106.068 44.8239 105.927 44.7642C105.791 44.7027 105.672 44.613 105.577 44.5017C105.458 44.3606 105.374 44.1955 105.331 44.0189C105.276 43.7883 105.25 43.5523 105.255 43.3159C105.25 43.0794 105.275 42.8433 105.331 42.6128C105.376 42.4412 105.46 42.2811 105.577 42.1441C105.671 42.0323 105.791 41.9425 105.927 41.8816C106.068 41.8219 106.221 41.7923 106.375 41.7949C106.488 41.7938 106.601 41.808 106.71 41.8371C106.814 41.8683 106.912 41.915 107 41.9753C107.104 42.0429 107.199 42.1215 107.283 42.2097L108.236 41.3051C108.006 41.0675 107.723 40.8811 107.409 40.759C107.08 40.6345 106.728 40.5747 106.375 40.5833C106.142 40.5822 105.91 40.6074 105.683 40.6583C105.444 40.7139 105.215 40.8023 105.003 40.9207C104.779 41.051 104.581 41.2194 104.42 41.4176C104.233 41.6528 104.095 41.919 104.011 42.2027C103.804 42.9357 103.804 43.7077 104.011 44.4408C104.095 44.7242 104.234 44.9904 104.42 45.2259C104.581 45.4254 104.778 45.5954 105.003 45.7274C105.214 45.8486 105.443 45.9379 105.683 45.9922C105.91 46.0431 106.142 46.0683 106.375 46.0672C106.729 46.0739 107.08 46.0133 107.409 45.8891C107.724 45.7579 108.006 45.5646 108.236 45.322H108.221ZM102.256 41.0707C102.138 40.9565 102.006 40.8573 101.862 40.7754C101.727 40.7011 101.581 40.6474 101.428 40.6161C101.266 40.5826 101.101 40.5661 100.936 40.5669C100.741 40.5677 100.547 40.5945 100.36 40.6465C100.186 40.6957 100.021 40.7667 99.8672 40.8575C99.7331 40.9332 99.6132 41.0299 99.5127 41.1434V40.6278H98.1387V45.9899H99.5447V42.7581C99.5436 42.6078 99.5711 42.4585 99.6259 42.3175C99.6735 42.2024 99.7456 42.0979 99.8377 42.0105C99.9208 41.9324 100.02 41.8711 100.128 41.83C100.231 41.7901 100.342 41.7702 100.453 41.7715C100.555 41.7698 100.656 41.7816 100.754 41.8066C100.836 41.8326 100.915 41.8688 100.988 41.9144C101.063 41.9676 101.134 42.0264 101.199 42.0902L102.256 41.0707ZM93.8323 44.0143C93.8358 44.1539 93.8201 44.2933 93.7856 44.4291C93.7595 44.5299 93.704 44.6217 93.6255 44.6939C93.5543 44.7633 93.471 44.8204 93.3793 44.8626C93.2885 44.9 93.1921 44.9237 93.0937 44.9329C92.9786 44.947 92.8626 44.9533 92.7465 44.9517C92.5274 44.9651 92.3103 44.9045 92.1334 44.7806C92.0674 44.7248 92.0155 44.6556 91.9814 44.5782C91.9473 44.5007 91.9319 44.4169 91.9364 44.333C91.932 44.249 91.9479 44.1651 91.9829 44.0879C92.0179 44.0107 92.0711 43.9422 92.1384 43.8877C92.3095 43.7718 92.5171 43.7148 92.7268 43.726H93.8397L93.8323 44.0143ZM95.2358 45.9899V42.4605C95.2557 42.1958 95.2115 41.9302 95.1064 41.6844C95.0014 41.4385 94.8384 41.219 94.6301 41.0426C94.2238 40.7262 93.628 40.5739 92.8376 40.5739C92.562 40.5698 92.2866 40.591 92.0152 40.6372C91.7867 40.679 91.5676 40.7583 91.3677 40.8715C91.1571 40.9919 90.9669 41.142 90.8038 41.3168L91.7025 42.1511C91.7871 42.0543 91.8839 41.9677 91.9906 41.8933C92.0923 41.8274 92.2058 41.7797 92.3255 41.7527C92.4757 41.7202 92.6295 41.7053 92.7834 41.7082C93.0679 41.6833 93.3525 41.7556 93.5861 41.9121C93.6752 41.9942 93.7436 42.0943 93.7862 42.2051C93.8288 42.3159 93.8446 42.4345 93.8323 42.5519V42.819H92.5028C92.2128 42.8163 91.9243 42.8582 91.6484 42.9432C91.4265 43.0128 91.2226 43.1262 91.0501 43.276C90.894 43.4136 90.7721 43.5825 90.693 43.7705C90.6155 43.9627 90.5762 44.167 90.5773 44.3728C90.5753 44.6003 90.6153 44.8264 90.6955 45.0407C90.7709 45.2413 90.8891 45.4248 91.0427 45.5798C91.2139 45.7398 91.421 45.8608 91.6484 45.9336C92.1012 46.0632 92.5804 46.0857 93.0444 45.9993C93.1985 45.9639 93.3462 45.9071 93.4827 45.8305C93.6214 45.7473 93.7495 45.649 93.8644 45.5376V46.0063L95.2358 45.9899ZM86.8938 42.8097H84.7542C84.7552 42.739 84.7618 42.6685 84.7739 42.5987C84.7806 42.5375 84.7938 42.477 84.8133 42.4183C84.8305 42.3597 84.8551 42.2988 84.8822 42.2331C84.9332 42.1271 85.0032 42.0304 85.0891 41.9472C85.1782 41.8627 85.2846 41.7965 85.4018 41.7527C85.6735 41.6528 85.9746 41.6528 86.2463 41.7527C86.3634 41.7965 86.4699 41.8627 86.559 41.9472C86.6449 42.0304 86.7149 42.1271 86.7658 42.2331C86.7924 42.2936 86.8154 42.3554 86.8348 42.4183C86.8533 42.4772 86.8665 42.5376 86.8741 42.5987C86.8861 42.6685 86.8927 42.739 86.8938 42.8097ZM88.2776 43.726V43.1307C88.2815 42.784 88.2267 42.439 88.1151 42.1089C88.0143 41.8103 87.8519 41.5338 87.6374 41.2957C87.4277 41.064 87.1649 40.8812 86.8692 40.7614C86.5388 40.6296 86.1835 40.5634 85.8253 40.5669C85.4818 40.5636 85.141 40.6258 84.8231 40.7497C84.5263 40.8677 84.2619 41.0489 84.05 41.2793C83.8266 41.5315 83.6591 41.824 83.5576 42.1394C83.4339 42.5187 83.3741 42.9141 83.3803 43.3112C83.3738 43.6891 83.4218 44.066 83.5231 44.4314C83.6019 44.7133 83.7337 44.9793 83.9121 45.2165C84.0709 45.417 84.2681 45.5872 84.4932 45.718C84.7134 45.8414 84.9527 45.9308 85.2023 45.9828C85.4596 46.0352 85.7222 46.0603 85.9853 46.0578C86.2815 46.063 86.5771 46.0307 86.8643 45.9618C87.1045 45.9012 87.3331 45.8047 87.5414 45.6758C87.7534 45.5404 87.9491 45.3832 88.125 45.2071L87.2706 44.4127C87.1644 44.5184 87.0463 44.6127 86.9185 44.6939C86.7968 44.7702 86.6629 44.8272 86.5221 44.8626C86.3503 44.9016 86.1742 44.9205 85.9976 44.9189C85.7629 44.9238 85.531 44.8697 85.3254 44.7619C85.1457 44.663 85.0003 44.5164 84.9068 44.34C84.8093 44.148 84.7604 43.9369 84.764 43.7237L88.2776 43.726ZM81.0707 44.3025C81.0811 44.1038 81.0494 43.9051 80.9775 43.7183C80.9056 43.5315 80.795 43.3604 80.6522 43.2151C80.3058 42.9171 79.8605 42.7446 79.394 42.7276L78.5076 42.6456C78.3783 42.6386 78.2518 42.6067 78.1358 42.5519C78.0629 42.5118 78.0039 42.4523 77.9659 42.3808C77.9379 42.3186 77.9236 42.2516 77.924 42.1839C77.9229 42.0932 77.9523 42.0046 78.0077 41.9308C78.0734 41.8452 78.1642 41.7799 78.2687 41.7433C78.4139 41.6899 78.5687 41.6644 78.7242 41.6683C78.889 41.6661 79.0536 41.6763 79.2167 41.6988C79.3709 41.7196 79.5221 41.7574 79.6673 41.8113C79.8052 41.8612 79.9321 41.9351 80.0415 42.0292L80.9082 41.1949C80.7313 41.0372 80.5273 40.9096 80.305 40.8176C80.0744 40.7227 79.8319 40.6565 79.5836 40.6208C79.3097 40.5819 79.0331 40.5639 78.7563 40.5669C78.478 40.5658 78.201 40.6029 77.9339 40.677C77.684 40.7467 77.4489 40.8578 77.2395 41.0051C77.0392 41.1459 76.8758 41.3287 76.7619 41.5394C76.6399 41.781 76.5785 42.0462 76.5823 42.3141C76.5862 42.5821 76.6552 42.8456 76.784 43.0839C76.9162 43.2963 77.114 43.4649 77.3503 43.5666C77.6269 43.6862 77.9238 43.7577 78.2269 43.7776L79.1133 43.8596C79.282 43.8638 79.4446 43.9206 79.5762 44.0213C79.6216 44.0647 79.6568 44.1168 79.6793 44.1742C79.7018 44.2316 79.7112 44.293 79.7067 44.3541C79.709 44.446 79.6787 44.5361 79.6205 44.6095C79.5601 44.6842 79.4815 44.7437 79.3915 44.7829C79.2906 44.8282 79.1837 44.8605 79.0739 44.879C78.9545 44.8998 78.8333 44.91 78.7119 44.9095C78.552 44.9117 78.3922 44.9007 78.2343 44.8767C78.0543 44.8517 77.8787 44.8036 77.7123 44.7337C77.5288 44.6534 77.3619 44.5423 77.2198 44.4056L76.3014 45.2798C76.4654 45.4384 76.6509 45.5756 76.853 45.6876C77.036 45.7894 77.2321 45.8682 77.4365 45.9219C77.6376 45.976 77.8438 46.0113 78.0521 46.0274C78.268 46.0479 78.4851 46.0565 78.7021 46.0532C79.0166 46.0553 79.3301 46.0199 79.6353 45.9477C79.9067 45.8827 80.1641 45.7733 80.3961 45.6243C80.6087 45.4829 80.7833 45.2959 80.9058 45.0782C81.0249 44.8358 81.0814 44.5699 81.0707 44.3025ZM72.7509 42.8097H70.6088C70.6088 42.7323 70.6088 42.662 70.6285 42.5987C70.6376 42.5378 70.6508 42.4776 70.6679 42.4183C70.6876 42.3597 70.7098 42.2988 70.7393 42.2331C70.7885 42.1267 70.8578 42.0299 70.9437 41.9472C71.0332 41.8632 71.1396 41.7971 71.2564 41.7527C71.5281 41.6528 71.8292 41.6528 72.1009 41.7527C72.218 41.7965 72.3245 41.8627 72.4136 41.9472C72.5003 42.0298 72.5703 42.1266 72.6204 42.2331C72.6478 42.2936 72.6716 42.3554 72.6918 42.4183C72.7092 42.4775 72.7224 42.5378 72.7312 42.5987C72.7411 42.662 72.746 42.7347 72.7509 42.8097ZM74.1347 43.726V43.1307C74.1386 42.784 74.0838 42.439 73.9722 42.1089C73.8704 41.8107 73.7081 41.5344 73.4945 41.2957C73.2834 41.0644 73.0199 40.8818 72.7238 40.7614C72.3935 40.6293 72.0382 40.5631 71.6799 40.5669C71.3372 40.5636 70.9973 40.6258 70.6802 40.7497C70.3823 40.8671 70.1169 41.0483 69.9046 41.2793C69.6802 41.5308 69.5126 41.8236 69.4122 42.1394C69.2874 42.5185 69.2268 42.914 69.2324 43.3112C69.2266 43.6892 69.2755 44.0661 69.3777 44.4314C69.4555 44.7137 69.5874 44.9798 69.7667 45.2165C69.9243 45.4181 70.1217 45.5884 70.3478 45.718C70.5678 45.8418 70.8072 45.9312 71.0569 45.9828C71.3134 46.0352 71.5752 46.0603 71.8375 46.0578C72.1336 46.0632 72.4292 46.0308 72.7165 45.9618C72.9574 45.9012 73.1868 45.8047 73.396 45.6758C73.6075 45.5398 73.8031 45.3827 73.9796 45.2071L73.1276 44.415C73.0206 44.5208 72.9017 44.6151 72.7731 44.6962C72.6526 44.773 72.5194 44.83 72.3791 44.865C72.2065 44.904 72.0296 44.9229 71.8522 44.9212C71.6175 44.9262 71.3857 44.872 71.18 44.7642C71.0011 44.6652 70.8564 44.5186 70.7639 44.3424C70.6643 44.1509 70.6145 43.9396 70.6187 43.726H74.1347ZM208.884 45.9899V44.8579H208.377C208.309 44.8634 208.242 44.8552 208.178 44.8337C208.114 44.8123 208.056 44.7782 208.007 44.7337C207.921 44.6331 207.879 44.5047 207.889 44.3752V41.7972H208.874V40.7778H207.889V39.1935H206.483V40.7778H205.887V41.7972H206.483V44.4525C206.483 44.6427 206.515 44.8318 206.577 45.0126C206.639 45.193 206.738 45.3596 206.87 45.5024C207.008 45.6549 207.182 45.7751 207.377 45.854C207.611 45.9458 207.863 45.9905 208.116 45.9852L208.884 45.9899ZM203.437 45.9899V42.5612C203.441 42.3736 203.426 42.1862 203.393 42.0011C203.358 41.8256 203.298 41.6554 203.216 41.4949C203.126 41.3224 203.008 41.1643 202.866 41.0262C202.703 40.8764 202.508 40.7607 202.295 40.6864C202.052 40.6012 201.795 40.5584 201.537 40.5598C201.363 40.56 201.19 40.5812 201.022 40.6231C200.681 40.7016 200.372 40.8726 200.131 41.1153V40.6208H198.757V45.9828H200.163V42.7487C200.159 42.5889 200.188 42.4298 200.246 42.28C200.293 42.1648 200.368 42.0619 200.466 41.98C200.554 41.9047 200.658 41.848 200.771 41.8136C200.878 41.78 200.99 41.7634 201.103 41.7644C201.216 41.7647 201.328 41.7813 201.436 41.8136C201.552 41.8509 201.659 41.9123 201.748 41.9933C201.837 42.0743 201.906 42.173 201.95 42.2824C202.009 42.432 202.037 42.5913 202.032 42.7511V45.9922L203.437 45.9899ZM194.674 42.8097H192.545C192.545 42.7323 192.545 42.662 192.564 42.5987C192.573 42.5378 192.587 42.4776 192.604 42.4183C192.623 42.3597 192.646 42.2988 192.675 42.2331C192.725 42.1266 192.795 42.0298 192.882 41.9472C192.971 41.8627 193.078 41.7965 193.195 41.7527C193.328 41.7012 193.472 41.6757 193.616 41.6777C193.76 41.6752 193.903 41.7007 194.037 41.7527C194.155 41.7965 194.262 41.8627 194.352 41.9472C194.438 42.0299 194.507 42.1267 194.556 42.2331C194.585 42.2932 194.609 42.355 194.628 42.4183C194.645 42.4775 194.658 42.5378 194.667 42.5987C194.674 42.6688 194.676 42.7393 194.674 42.8097ZM196.058 43.726V43.1307C196.062 42.784 196.007 42.439 195.896 42.1089C195.794 41.8107 195.632 41.5344 195.418 41.2957C195.207 41.065 194.945 40.8824 194.65 40.7614C194.319 40.6293 193.963 40.5631 193.603 40.5669C193.261 40.5636 192.921 40.6258 192.604 40.7497C192.307 40.8683 192.041 41.0494 191.828 41.2793C191.604 41.5308 191.436 41.8236 191.336 42.1394C191.211 42.5185 191.15 42.914 191.156 43.3112C191.15 43.6892 191.199 44.0661 191.301 44.4314C191.379 44.7137 191.511 44.9798 191.69 45.2165C191.848 45.4174 192.044 45.5877 192.269 45.718C192.49 45.841 192.73 45.9304 192.98 45.9828C193.238 46.0352 193.5 46.0603 193.763 46.0578C194.06 46.063 194.355 46.0307 194.642 45.9618C194.883 45.9012 195.111 45.8047 195.32 45.6758C195.532 45.5404 195.727 45.3832 195.903 45.2071L195.049 44.4127C194.943 44.5184 194.824 44.6127 194.697 44.6939C194.575 44.7702 194.441 44.8272 194.3 44.8626C194.128 44.9016 193.951 44.9205 193.773 44.9189C193.539 44.9242 193.308 44.87 193.104 44.7619C192.924 44.663 192.778 44.5164 192.685 44.34C192.59 44.1507 192.542 43.9429 192.545 43.733L196.058 43.726ZM67.6394 41.0707C67.5215 40.9571 67.3892 40.8579 67.2454 40.7754C67.1104 40.7015 66.9643 40.6478 66.8121 40.6161C66.6503 40.5826 66.4852 40.5661 66.3196 40.5669C65.9433 40.5659 65.5745 40.6667 65.256 40.8575C65.123 40.9338 65.0041 41.0304 64.9039 41.1434V40.6278H63.525V45.9899H64.931V42.7581C64.9279 42.6115 64.9521 42.4655 65.0024 42.3269C65.0491 42.2119 65.1204 42.1074 65.2117 42.0199C65.2957 41.9417 65.3953 41.8803 65.5047 41.8394C65.6078 41.7993 65.7183 41.7794 65.8297 41.7808C65.9302 41.7792 66.0305 41.791 66.1276 41.816C66.2146 41.8406 66.2976 41.8769 66.3738 41.9238C66.4487 41.9776 66.5194 42.0363 66.5856 42.0996L67.6394 41.0707ZM72.5343 18.7529H59.7308V30.9395H72.5343V18.7529ZM214.249 18.8912H226.932V30.9465H214.249V18.8912ZM207.67 37.0445H226.932V40.1286H214.17V46.1914H233.339V12.601H207.67V37.0445ZM246.846 37.2484V12.6549H272.453V18.7482H253.248V30.9348H272.453V37.0281L246.846 37.2484ZM243.18 3.47282H236.778V9.5661H243.18V3.47282ZM243.18 37.0164H236.778V12.6432H243.18V37.0164ZM197.6 18.7248H184.821V30.9465H197.6V18.7248ZM178.414 12.6549H204.021V37.0445H178.51V12.6549H178.414ZM168.541 37.0281H174.942V0.423828H168.541V37.0281ZM158.977 18.0194H146.157V22.5214H158.977V18.0194ZM139.75 37.0468V12.601H165.384V27.935H146.157V30.9465H158.904V37.0398L139.75 37.0468ZM117.952 37.0281L111.55 37.082V12.6713H137.18V18.7529H117.952V37.0281ZM82.3757 37.082V12.601H88.7774V30.9465H101.62V12.6666H108.022V37.0398L82.3757 37.082ZM59.7234 46.1938H53.3217V12.6807H78.9385V37.0796H59.7332L59.7234 46.1938Z" fill="#3C3C3B"/>
</svg>
